<svg xmlns="http://www.w3.org/2000/svg" viewBox="0 0 100 100"><path d="M100-23.9c0-.48-.11-.59-.59-.59H.59c-.48,0-.59.11-.59.59Q0,50,0,123.9c0,.48.11.59.59.59H99.41c.48,0,.59-.11.59-.59q0-36.91,0-73.84T100-23.9ZM50.33,82.36c-.35,0-.43-.12-.43-.44,0-2,0-3.91,0-5.87,0-.48.24-.43.55-.43a24.62,24.62,0,0,0,7.86-1A22.39,22.39,0,0,0,73.74,56a22.62,22.62,0,0,0-1-9.67.19.19,0,0,0,0-.07.39.39,0,0,0,.06-.36,21.78,21.78,0,0,0-3.55-7.75c-.14-.18-.26-.39-.52-.41.07-.32-.19-.5-.36-.7A19.21,19.21,0,0,0,61,31.65c-.25-.11-.51-.25-.78,0l0,0c0-.23-.22-.26-.42-.29a.4.4,0,0,1-.16.08h0l-.38-.1A2.43,2.43,0,0,1,59,31a18.62,18.62,0,0,0-6-.83c-8.93,0-17.85,0-26.78,0a6.77,6.77,0,0,0-1.62.19l-.2,0a31.77,31.77,0,0,1,11.84-9.53,30.83,30.83,0,0,1,10.42-2.92,31.82,31.82,0,0,1,16,2.47A32.36,32.36,0,0,1,82.17,47.61,31.17,31.17,0,0,1,77.48,67,32.12,32.12,0,0,1,57.76,81.4,33.85,33.85,0,0,1,50.33,82.36ZM22.84,67.61a31.22,31.22,0,0,1-5.08-14.82c-.06-.74-.05-1.49-.13-2.23,0-.45.13-.52.53-.52,3.85,0,7.69,0,11.54,0,6.79,0,13.59.06,20.38,0a6.67,6.67,0,0,1,6.74,5.78A6.21,6.21,0,0,1,56.7,58h-.05c-2.59.7-5.24.44-7.86.46-5.46,0-10.91,0-16.37,0-.27,0-.55,0-.82,0-.61,0-.77.21-.82.83,0,.17,0,.34,0,.51V75.09a3.26,3.26,0,0,0,.06.7h0a1,1,0,0,0,.06.23A31.18,31.18,0,0,1,22.84,67.61Z" fill="#fff"/><path d="M89.22,62.63A41.5,41.5,0,0,1,59.67,90.08a39.85,39.85,0,0,1-19.17,0A2.15,2.15,0,0,1,40.34,89c0-2.78,0-5.56,0-8.33,0-.89,0-1.78,0-2.67,0-.29,0-.58,0-.87V75.72h0c0-.92,0-1.83,0-2.75,0-1.36,0-2.72,0-4.08,0-.82.15-1,1-1h8c1.91,0,3.83,0,5.74,0a17.08,17.08,0,0,0,14.14-7.34,17.75,17.75,0,0,0,3.14-7.12,18.49,18.49,0,0,0,.19-6.34c0-.28-.15-.58.14-.81h0a22.62,22.62,0,0,1,1,9.67A22.39,22.39,0,0,1,58.31,74.61a24.62,24.62,0,0,1-7.86,1c-.31,0-.56-.05-.55.43,0,2,0,3.91,0,5.87,0,.32.08.45.43.44a33.85,33.85,0,0,0,7.43-1A32.12,32.12,0,0,0,77.48,67a31.17,31.17,0,0,0,4.69-19.41A32.36,32.36,0,0,0,62.69,20.38a31.82,31.82,0,0,0-16-2.47,30.83,30.83,0,0,0-10.42,2.92,31.77,31.77,0,0,0-11.84,9.53l.2,0a.3.3,0,0,1-.08.08,1.49,1.49,0,0,1-.12.14,1,1,0,0,1-.55.13c-2.92-.26-5.84.07-8.76,0-.44,0-.95.16-1.28-.31,6.28-11,15.51-18,27.88-20.72a38.7,38.7,0,0,1,24.59,2.6A40.83,40.83,0,0,1,88.92,36.86,39.45,39.45,0,0,1,89.22,62.63Z" fill="#121238"/><path d="M57.46,58c-.26.12-.59.44-.8,0a0,0,0,0,1,0,0h.05a6.21,6.21,0,0,0,.12-2.15A6.67,6.67,0,0,0,50.08,50c-6.79.08-13.59,0-20.38,0-3.85,0-7.69,0-11.54,0-.4,0-.57.07-.53.52.08.74.07,1.49.13,2.23A31.83,31.83,0,0,0,30.89,76a1,1,0,0,1-.06-.23.37.37,0,0,1,.12.13.45.45,0,0,1,.11.13,1,1,0,0,1,.07.15,2.45,2.45,0,0,1,.05.72c0,2.9,0,5.81,0,8.71a1.31,1.31,0,0,1-.07.71.47.47,0,0,1-.22.19,41.4,41.4,0,0,1-16.3-15.42A40.56,40.56,0,0,1,8.84,48.07a39.23,39.23,0,0,1,1-7.23.88.88,0,0,1,.12-.21H54.23a8.62,8.62,0,0,1,5.28,2.19,8,8,0,0,1,2.21,2.75h0v0c.17.33.34.65.48,1a.47.47,0,0,1,0,.1,10,10,0,0,1,.39,1.52s0,.06,0,.09v0A9.32,9.32,0,0,1,57.46,58Z" fill="#121238"/><path d="M64.23,65.53A17.3,17.3,0,0,1,55,68.14c-4.57,0-9.14,0-13.71,0-.57,0-.71.16-.7.71,0,1.34,0,2.68,0,4a22.73,22.73,0,0,0,0,2.61.67.67,0,0,1-.13.48.57.57,0,0,1-.52.1.71.71,0,0,0-.71.13.48.48,0,0,1-.69,0c-1-.74-1.89-.32-2.72.13a3,3,0,0,1-3,0c-.4-.28-.84-.48-1.24-.76-.2.25-.12.52-.12.76,0,3.14,0,6.27,0,9.41,0,.33.08.69-.22,1l-.22-.1a2.17,2.17,0,0,0,.08-.88c0-3,0-6,0-9.08a1.15,1.15,0,0,0-.1-.55,1,1,0,0,1-.06-.23h0a3.26,3.26,0,0,1-.06-.7V59.8c0-.17,0-.34,0-.51,0-.62.21-.78.82-.83.27,0,.55,0,.82,0,5.46,0,10.91,0,16.37,0,2.62,0,5.27.24,7.86-.46h.05c.08.19.18.09.29,0a9.17,9.17,0,0,0,5.54-9.29,2.38,2.38,0,0,1,0-.38h0l.12-.13c.44-.42.93-.8.77-1.56-.05-.22.13-.38.32-.5.46-.29.92-.6,1.36-.91a.81.81,0,0,1,.39-.2c1.08,0,1.84-.82,2.8-1.13.33-.11.51-.29.28-.65a.77.77,0,0,1,0-.56.81.81,0,0,0-.34-.84.7.7,0,0,1-.27-.83c.12-.58,0-1.22.54-1.69.17-.15,0-.45,0-.68s-.15-.71.23-.94l0,0h0c.26,0,.38.23.52.41a21.78,21.78,0,0,1,3.55,7.75.39.39,0,0,1-.06.36s0,.05,0,.07a1.56,1.56,0,0,0,0,.68A18.56,18.56,0,0,1,64.23,65.53Z" fill="#f05c28"/><path d="M60.21,31.59v0a.23.23,0,0,1,0,.11,4.89,4.89,0,0,1-2,1.06c-.38.07-.59.41-.93.52-1.72.57-2.89,1.89-4.19,3a2.05,2.05,0,0,0-.45.61,1.62,1.62,0,0,1-2.11.9,2.1,2.1,0,0,0-.5-.09c-.53,0-.74.23-.52.7s.11.79-.43.94-.52.34-.2.73.21.44,0,.51l-.05,0a.48.48,0,0,1-.18,0,4.34,4.34,0,0,1-.51,0H10.84a2.81,2.81,0,0,1-.58,0,.49.49,0,0,1-.17-.06L10,40.56a13.27,13.27,0,0,1,.78-3.05,38.39,38.39,0,0,1,3.08-7.12,31.09,31.09,0,0,0,3.74,0c2.09,0,4.19,0,6.29,0a1.08,1.08,0,0,0,.56-.08l.2,0a6.77,6.77,0,0,1,1.62-.19c8.93,0,17.85,0,26.78,0A18.62,18.62,0,0,1,59,31a2.43,2.43,0,0,0,.24.3.33.33,0,0,0,.38.1h0a.4.4,0,0,0,.16-.08C60,31.33,60.21,31.36,60.21,31.59Z" fill="#f17328"/><path d="M68.72,43.92c-1.1.28-1.91,1.2-3.12,1.29-.44,0-.85.5-1.27.78,0,0,0,.06,0,.06-.77.17-.79.7-.71,1.35,0,.25-.59.77-.94.9a.27.27,0,0,1-.14,0h0c-.14-.55-.28-1.1-.43-1.65a.44.44,0,0,1,.53-.11l.1.07c-.14-.4.34-.42.42-.7-.49-.06-.86-.63-1.41-.35a.6.6,0,0,0-.11.06A9.66,9.66,0,0,0,57.1,41.5a6.53,6.53,0,0,0-2.6-.69,1.78,1.78,0,0,0-.76-.05h-43a2,2,0,0,1-.76,0,.1.1,0,0,1,0-.07l0,0,0,0H48.34c.19,0,.49.12.56-.14s-.24-.25-.39-.35-.32-.16-.24-.32.34-.56.64-.56c.66,0,.73-.19.35-.72s-.08-.88.46-1a.88.88,0,0,1,.68.08c.54.42,1.05,0,1.57,0,.08,0,.2-.17.24-.28.26-.84,1-1.27,1.54-1.88s1.66-1.09,2.27-1.9c.06-.08.24-.06.36-.09.54-.17,1.14-.23,1.41-.85,0,0,.1-.12.13-.11,1,.37,1.41-.67,2.19-.81l.1,0h0c.27-.21.53-.07.78,0A19.21,19.21,0,0,1,68.38,37c.17.2.43.38.36.7a.13.13,0,0,1,0,.06.83.83,0,0,0-.1.73c.09.55.25,1.08-.41,1.42-.15.08-.13.3-.07.47a.57.57,0,0,1,0,.49c-.27.45-.24.75.31,1,.22.08.28.42.24.68s-.19.71.24,1C69.16,43.65,68.85,43.89,68.72,43.92Z" fill="#f16829"/><path d="M31.11,86.64c0-3.61,0-7.22,0-10.83,0-.17,0-.34,0-.51s.21-.33.35-.12c.38.55,1.06.64,1.53,1.08a2.43,2.43,0,0,0,2.58-.18,2.58,2.58,0,0,1,3,0c.23.19.36.19.46-.09s.36-.3.66-.18c.59.25.69.15.72-.48a10.68,10.68,0,0,1,.1-2.46q0,7.14,0,14.28a24.87,24.87,0,0,1-.06,3,33.73,33.73,0,0,1-7.87-2.69C32.11,87.17,31.62,86.9,31.11,86.64Z" fill="#ef5028"/><path d="M62.21,32.41a6.34,6.34,0,0,0-2-.8c.27-.21.53-.07.78,0A19.21,19.21,0,0,1,68.38,37c.17.2.43.38.36.7.26,0,.38.23.52.41a21.78,21.78,0,0,1,3.55,7.75.39.39,0,0,1-.06.36,22.83,22.83,0,0,0-3.88-8.34,1.49,1.49,0,0,0-.14-.12l0,0A17.43,17.43,0,0,0,62.21,32.41Z" fill="#f3f3f3"/><path d="M60.21,31.59a.72.72,0,0,0-.52-.19c-.23.14-.38,0-.53-.14a17.09,17.09,0,0,0-5.63-.84c-9.28,0-18.56,0-27.85,0a3.57,3.57,0,0,1-1.13,0l-.12,0,.2,0a6.77,6.77,0,0,1,1.62-.19c8.93,0,17.85,0,26.78,0A18.62,18.62,0,0,1,59,31a2.43,2.43,0,0,0,.24.3l.38.1h0a.4.4,0,0,0,.16-.08C60,31.33,60.21,31.36,60.21,31.59Z" fill="#f3f3f3"/><path d="M56.65,58c-2.59.7-5.24.44-7.86.46-5.46,0-10.91,0-16.37,0-.27,0-.55,0-.82,0-.61,0-.77.21-.82.83,0,.17,0,.34,0,.51V75.09a3.26,3.26,0,0,0,.06.7h0a1,1,0,0,0,.06.23l.06-.1a1.54,1.54,0,0,0,0-.64c0-5.29,0-10.58,0-15.87,0-.66.19-.79.82-.79q10.64,0,21.27,0A12.11,12.11,0,0,0,55,58.55c.58-.1,1.25,0,1.71-.54l0,0Z" fill="#f3f3f3"/><path d="M10,40.7c.55,0,1.1-.05,1.65-.05H52.86a4.14,4.14,0,0,1,1.64.16H10.66C10.44,40.81,10.19,40.92,10,40.7Z" fill="#200005"/><path d="M61.62,45.66c.35-.24.7-.91,1,0,.06.14.22.13.33,0s.31-.15.41.05a.35.35,0,0,1-.19.47c-.2.11-.46.14-.46.44h-.66Z" fill="#f05c28"/><path d="M59.69,31.4c-.3.48-.47.15-.65-.1l.06,0h.06l.08,0,.38.1h0Z" fill="#f16829"/><path d="M62.75,46.68c.16,0,.39-.19.47.12A.22.22,0,0,1,63,47c-.3.07-.27-.16-.29-.35Z" fill="#f05c28"/><path d="M40.43,77.06c0,1.16,0,2.21,0,3.26,0,.19,0,.42-.25.47s-.29-.15-.39-.27a1.39,1.39,0,0,1,.1-1.76c.31-.33.08-.79.27-1.15C40.23,77.48,40.15,77.27,40.43,77.06Z" fill="#f05c28"/><path d="M32.67,77.63c-.14,0-.25-.09-.21-.24s.22-.22.39-.22.24,0,.21.13S32.86,77.59,32.67,77.63Z" fill="#f05c28"/></svg>