<svg xmlns="http://www.w3.org/2000/svg" viewBox="0 0 100 100"><rect x="-1.4" y="-1.4" width="102.8" height="102.8" fill="#f1f2f2"/><path d="M26.25,75.36h-3.5c-.17,0-.24,0-.21-.22a.65.65,0,0,0,0-.14q0-40.58,0-81.14c0-.28,0-.34.34-.34H77.15c.27,0,.32.06.32.32,0,3.05,0,6.09,0,9.14a1.91,1.91,0,0,1-.88.15A3.44,3.44,0,0,0,73.9,5.55,2.9,2.9,0,0,0,73.85,7a.44.44,0,0,1-.13.41c-1.79,2.12-3.52,4.29-5.32,6.4-.69.81-1.35,1.66-2,2.48a1.9,1.9,0,0,1-.24.25A19.9,19.9,0,0,1,61.74,18c-2,.42-3.92.65-5.87,1a43.73,43.73,0,0,0-6.6,1.58,23.51,23.51,0,0,0-6.48,3.27A20.08,20.08,0,0,0,38,28.69a19.54,19.54,0,0,0-3.31,8.4,19.28,19.28,0,0,0,0,5.47c.16,1.11.45,2.2.59,3.31a9.65,9.65,0,0,1-.68,5.85A10.43,10.43,0,0,1,33,53.91L31.5,55.64c-.17.19-.17.33,0,.5.51.44,1,.9,1.49,1.36.17.16.3.15.44,0,.35-.44.74-.84,1.09-1.28a9.5,9.5,0,0,1,6.78-3.62,11.72,11.72,0,0,1,2.44.08c.47.05.93.07,1.4.1a21.41,21.41,0,0,0,5.18-.33,20.67,20.67,0,0,0,8.5-3.61,19.35,19.35,0,0,0,5.8-6.63c.07-.12.12-.27.29-.28s.24.2.29.35c.75,2.23,1.43,4.47,2.2,6.69.11.33.08.4-.28.48-.73.17-1.48.24-2.21.39a34.38,34.38,0,0,0-8.88,2.91,14.77,14.77,0,0,0-4.78,4C49.51,59,47.8,61.24,46,63.48c-1,1.29-2,2.56-3,3.88a1.34,1.34,0,0,1-1.23.62C36.9,68,32,68,27.07,68H26.9c-.54,0-.54,0-.54.55v6.31A.72.72,0,0,1,26.25,75.36Z" fill="#f1f2f2"/><path d="M77.07,36.43H68.6a.77.77,0,0,0-.61.28c-.28.31-.52.67-.77,1a15.68,15.68,0,0,1-1.12,1.43.39.39,0,0,0-.17.25c-.25.76-.63,1.46-.94,2.2,0,.11-.13.22-.07.36a.39.39,0,0,1,.2.28c.1.43.27.83.41,1.26q.87,2.79,1.83,5.57c.07.2,0,.24-.18.27-1.22.21-2.45.4-3.66.69A32.42,32.42,0,0,0,56,52.63a13.67,13.67,0,0,0-4.12,3.19c-1,1.21-2,2.45-2.94,3.72-1.13,1.5-2.29,3-3.43,4.45-.82,1.06-1.68,2.09-2.45,3.17a1.51,1.51,0,0,1-1.37.72c-5,0-10,0-15,0-.22,0-.42,0-.42.32,0,2.4,0,4.79,0,7.19h3.86a.7.7,0,0,0,.11-.5V72.24c0-.54,0-.54.54-.54q4.08,0,8.14,0c.12,0,.24,0,.35,0s-.07.16-.13.23c-.76,1-1.51,2-2.28,3-.1.11-.25.23-.15.43H41.6a2.87,2.87,0,0,0,.29-.31l2.32-3a.84.84,0,0,1,.74-.36c1.48,0,2.95,0,4.41-.06a26.85,26.85,0,0,0,4.56-.69,46.45,46.45,0,0,0,4.76-1.42,39.82,39.82,0,0,0,7.2-3.18,14.88,14.88,0,0,0,4.42-3.87,12.14,12.14,0,0,0,2.18-5.1,14.25,14.25,0,0,0,.16-3.69,10.63,10.63,0,0,0-.33-2.18c-.68-2.42-1.56-4.77-2.3-7.17-.35-1.18-.76-2.35-1.16-3.52-.07-.22-.08-.36.23-.33a23.5,23.5,0,0,0,3.25,0c.15,0,.3,0,.45,0a12.27,12.27,0,0,0,2.1,0,7.17,7.17,0,0,1,1.39,0,1.76,1.76,0,0,0,1.19-.15V36.55A.51.51,0,0,0,77.07,36.43Zm-12,25.76A23.78,23.78,0,0,1,59.81,65a43.78,43.78,0,0,1-7.24,2.37,19.06,19.06,0,0,1-3.76.47,9.5,9.5,0,0,1-1.19.07c-.06,0-.15,0-.17-.07s0-.1.08-.15c1.66-2.14,3.29-4.31,5-6.43a28.67,28.67,0,0,1,2.84-3.49,13,13,0,0,1,4-2.42,28.52,28.52,0,0,1,2.86-1c.66-.2,1.34-.36,2-.53,1.07-.26,2.14-.45,3.21-.64.29-.06.58-.07.86-.14s.28,0,.3.22a9.62,9.62,0,0,1,.23,1.94A8.71,8.71,0,0,1,65.07,62.19Z" fill="#9fdbd3"/><path d="M41.59,75.36a5.8,5.8,0,0,1,.85-1.18c.61-.81,1.24-1.6,1.86-2.4a.44.44,0,0,1,.44-.2h2.87a25.86,25.86,0,0,0,5.12-.53c1.17-.23,2.31-.53,3.45-.85s2.25-.71,3.37-1.11a44.45,44.45,0,0,0,4.72-2,17.63,17.63,0,0,0,4.49-3,12.31,12.31,0,0,0,3.13-4.88,14.38,14.38,0,0,0,.65-5.44,14.16,14.16,0,0,0-.86-4c-.37-1.08-.72-2.16-1.08-3.24l-1.5-4.59c-.14-.43-.28-.86-.43-1.29-.09-.27.07-.26.25-.26.56,0,1.11.07,1.67,0,1.29,0,2.59.07,3.87,0,1-.06,2,.1,3-.05q0,17.36,0,34.7c0,.28-.06.34-.34.34Z" fill="#f2f2f2"/><path d="M77.46,36.55H68.53c-.41,0-.54.34-.73.58-.49.62-1,1.28-1.44,1.92-.06.08-.09.24-.25.17s0-.3,0-.44a24.56,24.56,0,0,0,1.09-5.09c.09-.81.16-1.62.18-2.44.06-2.32,0-4.64,0-7,0-1.63.17-3.26.3-4.88a1.07,1.07,0,0,1,.06-.27,8.65,8.65,0,0,1,1.1-1.45c1.37-1.6,2.72-3.22,4.08-4.83.86-1,1.72-2,2.59-3a.55.55,0,0,1,.68-.21,2.33,2.33,0,0,0,.83.08.55.55,0,0,1,.43.1Z" fill="#f2f3f3"/><path d="M77.46,9.79A3.8,3.8,0,0,1,76,9.66c-.16-.07-.28,0-.39.15-.75.88-1.5,1.75-2.24,2.63S71.77,14.37,71,15.35c-1,1.23-2.1,2.42-3.09,3.69-.12-.11-.07-.24-.06-.36.1-1,.28-1.91.47-2.86a.55.55,0,0,0,0-.34,12.65,12.65,0,0,1-1.77,1c-.13.06-.26.18-.42.06l3.42-4.13,2.46-3c.52-.64,1.05-1.27,1.58-1.9a.61.61,0,0,0,.15-.58,3.17,3.17,0,0,1,.7-2.58,3.49,3.49,0,0,1,3-1.33V5.23c-.1.09-.22,0-.33,0A1.12,1.12,0,0,0,77,7.51c.15,0,.31,0,.43.11Z" fill="#9fdbd3"/><path d="M30.11,75.36c0-1.15,0-2.31,0-3.46,0-.21,0-.33.28-.33h9l.14,0c-.36.45-.7.89-1,1.33l-1.79,2.31a.38.38,0,0,0,0,.1Z" fill="#f2f2f2"/><path d="M77.46,7.62a1.48,1.48,0,0,1-1.15-.27,1.22,1.22,0,0,1,1.15-2.12Z" fill="#f2f2f2"/><path d="M66.11,16.5a13.09,13.09,0,0,0,2.39-1.26,37.61,37.61,0,0,0-.63,3.8,55.23,55.23,0,0,0-.37,5.61c0,2.34.13,4.69,0,7a25.86,25.86,0,0,1-1.36,7.39.58.58,0,0,0,0,.14c-.34.93-.77,1.83-1.19,2.73a20.11,20.11,0,0,1-13,10.27,22.2,22.2,0,0,1-8.2.54,9.91,9.91,0,0,0-6.1,1A9.69,9.69,0,0,0,34.86,56l-1.4,1.65c-.13.16-.22.21-.4,0-.58-.55-1.16-1.09-1.75-1.61-.16-.14-.16-.2,0-.35l2.14-2.4a8.24,8.24,0,0,0,1.91-6.48c-.13-1.43-.49-2.83-.7-4.24a18.84,18.84,0,0,1,.58-8.21A20.1,20.1,0,0,1,45.89,21.86a31.41,31.41,0,0,1,7.74-2.56c2.43-.51,4.91-.76,7.34-1.23A23.13,23.13,0,0,0,66.11,16.5Z" fill="#00987f"/><path d="M37.89,48.79a18.16,18.16,0,0,0-.53-5.15,17.14,17.14,0,0,1,0-7.74,17.37,17.37,0,0,1,5.41-9s.06-.08.14,0c-.07.65-.2,1.3-.27,1.95a18.92,18.92,0,0,0,2.49,11.42c.12.2,0,.29-.09.41L41.26,45l-3.19,3.62Z" fill="#f2f2f2"/><path d="M39.85,50.42l1.78-2c1.15-1.32,2.32-2.62,3.43-4a1.4,1.4,0,0,1,1-.45,34.86,34.86,0,0,1,7.29-.29c1,.09.86-.08.82.93A10.93,10.93,0,0,1,53.09,49a.59.59,0,0,1-.32.3,21,21,0,0,1-6.38,1.1,28.6,28.6,0,0,1-3.07-.21A12.13,12.13,0,0,0,39.85,50.42Z" fill="#f2f2f2"/><path d="M65,21.94a8.66,8.66,0,0,1,0,1.55c-.1,1.87,0,3.74,0,5.6,0,.9,0,1.8-.06,2.69a.48.48,0,0,1-.17.36A11.25,11.25,0,0,1,58.48,35a9.12,9.12,0,0,1-3.17,0,6.73,6.73,0,0,1-.77-.21c-.39-.16-.45-.42-.18-.73l10.18-11.6C64.68,22.3,64.84,22.15,65,21.94Z" fill="#f2f2f2"/><path d="M51,22.55a14.25,14.25,0,0,0-1,6,16.74,16.74,0,0,0,1.13,4.89.52.52,0,0,1-.11.61q-1.89,2.13-3.75,4.28c-.16.18-.2.07-.27,0a16.79,16.79,0,0,1-1.42-3.89,18.44,18.44,0,0,1,.56-9.69.4.4,0,0,1,.18-.24A24.52,24.52,0,0,1,51,22.55Z" fill="#f3f3f3"/><path d="M64.51,35.46a18,18,0,0,1-8.25,12.2,19,19,0,0,0-.56-10.07A14.63,14.63,0,0,0,64.51,35.46Z" fill="#f2f2f2"/><path d="M61.42,22.12c-1.12,1.37-2.3,2.68-3.47,4l-4.87,5.57c-.14-.48-.28-.9-.38-1.33A11.43,11.43,0,0,1,54,21.94a.47.47,0,0,1,.37-.27c1.82-.33,3.66-.59,5.48-.89.93-.15,1.86-.33,2.79-.5.36,0,.11.2,0,.27-.36.46-.75.91-1.13,1.35A1.18,1.18,0,0,0,61.42,22.12Z" fill="#f2f2f2"/><path d="M48,41.26a1.4,1.4,0,0,1,.36-.43l3.72-4.22c.32-.36.33-.37.54.06A16.56,16.56,0,0,1,53.93,41c0,.2,0,.25-.21.23a36.5,36.5,0,0,0-5.63.09Z" fill="#f2f2f2"/><path d="M61.42,22.12a10.65,10.65,0,0,1,.9-1.22,5.85,5.85,0,0,1,.4-.47c.11-.11,0-.12,0-.15.14-.1.3-.07.47-.1A16.68,16.68,0,0,1,61.42,22.12Z" fill="#8fd7ce"/><rect x="22.74" y="3.53" width="54.64" height="71.83" fill="none" stroke="#9fdbd3" stroke-miterlimit="10"/><text transform="translate(25.77 90.08)" font-size="14" fill="#006d58" stroke="#006d58" stroke-miterlimit="10" stroke-width="0.25" font-family="ModulusPro-Medium, Modulus Pro" font-weight="500"><tspan letter-spacing="-0.01em">p</tspan><tspan x="7.53" y="0" letter-spacing="-0.02em">h</tspan><tspan x="14.31" y="0">y</tspan><tspan x="21.03" y="0" letter-spacing="-0.03em">ll</tspan><tspan x="29.06" y="0">ant</tspan></text></svg>