<svg xmlns="http://www.w3.org/2000/svg" viewBox="0 0 100 100"><path d="M100,50.06q0,36.93,0,73.84c0,.48-.11.59-.59.59H.59c-.48,0-.59-.11-.59-.59Q0,50,0-23.9c0-.48.11-.59.59-.59H99.41c.48,0,.59.11.59.59Q100,13.07,100,50.06Z" fill="#f2f2f2"/><path d="M13.84,30.39c6.28-11,15.51-18,27.88-20.72a38.7,38.7,0,0,1,24.59,2.6A40.83,40.83,0,0,1,88.92,36.86a39.45,39.45,0,0,1,.3,25.77A41.5,41.5,0,0,1,59.67,90.08a39.85,39.85,0,0,1-19.17,0A2.15,2.15,0,0,1,40.34,89c0-3.67,0-7.34,0-11,0-1.68,0-3.35,0-5,0-1.36,0-2.72,0-4.08,0-.82.15-1,1-1h8c1.91,0,3.83,0,5.74,0a17.08,17.08,0,0,0,14.14-7.34,17.75,17.75,0,0,0,3.14-7.12,18.49,18.49,0,0,0,.19-6.34c0-.28-.15-.59.15-.82.36.11.36.45.44.71a23.44,23.44,0,0,1,.88,5.84,21.17,21.17,0,0,1-1.45,8.55c-3.43,8.14-9.51,13-18.28,14.26a17.64,17.64,0,0,1-3.56.18c-.52,0-.72.16-.72.69,0,1.66,0,3.32,0,5,0,.64.08.65.72.63A30.93,30.93,0,0,0,56,81.6a32.4,32.4,0,0,0,23.11-18A32.46,32.46,0,0,0,82.07,49a31.45,31.45,0,0,0-2.91-12.38,32.39,32.39,0,0,0-6.64-9.44A31.89,31.89,0,0,0,58.19,19a30.59,30.59,0,0,0-9-1.08,31.79,31.79,0,0,0-12.63,3,33.69,33.69,0,0,0-10.37,7.61c-.61.65-1.12,1.38-1.74,2a1,1,0,0,1-.55.13c-2.92-.26-5.84.07-8.76,0C14.68,30.7,14.17,30.86,13.84,30.39Z" fill="#121238"/><path d="M30.89,86.54a41.4,41.4,0,0,1-16.3-15.42A40.56,40.56,0,0,1,8.84,48.07a39.23,39.23,0,0,1,1-7.23.88.88,0,0,1,.12-.21H54.23a8.62,8.62,0,0,1,5.28,2.19,8,8,0,0,1,2.21,2.75c.19.37.38.74.54,1.12a10.35,10.35,0,0,1,.41,1.64A9.32,9.32,0,0,1,57.46,58c-.28.13-.66.5-.86-.11a7.34,7.34,0,0,0-.33-3.45,6.15,6.15,0,0,0-5.74-4.1c-1.34,0-2.67,0-4-.1s-2.55.14-3.82.08c-2.5-.13-5,.05-7.5,0-1.79,0-3.56-.19-5.35-.12-1.37,0-2.75.15-4.12.09-2.33-.1-4.66.08-7-.09-.92-.07-.93,0-.86,1a42.93,42.93,0,0,0,.53,4.93,31.26,31.26,0,0,0,7.46,15.14,29.78,29.78,0,0,0,4.43,4.11,2.6,2.6,0,0,1,.76.68,1.71,1.71,0,0,1,.12.87c0,2.9,0,5.81,0,8.71C31.18,86,31.29,86.34,30.89,86.54Z" fill="#121238"/><path d="M56.7,58c.08.19.18.09.29,0a9.17,9.17,0,0,0,5.54-9.29,2.38,2.38,0,0,1,0-.38c.46-.47,1.08-.85.9-1.69-.05-.22.13-.38.32-.5.46-.29.92-.6,1.36-.91a.81.81,0,0,1,.39-.2c1.08,0,1.84-.82,2.8-1.13.33-.11.51-.29.28-.65a.77.77,0,0,1,0-.56.81.81,0,0,0-.34-.84.7.7,0,0,1-.27-.83c.12-.58,0-1.22.54-1.69.17-.15,0-.45,0-.68s-.16-.73.26-1c.27,0,.39.23.53.41a21.78,21.78,0,0,1,3.55,7.75.39.39,0,0,1-.06.36,1.47,1.47,0,0,0,0,.75,18.56,18.56,0,0,1-8.53,18.56A17.3,17.3,0,0,1,55,68.14c-4.57,0-9.14,0-13.71,0-.57,0-.71.16-.7.71,0,1.34,0,2.68,0,4a22.73,22.73,0,0,0,0,2.61c0,.5-.2.65-.65.58a.71.71,0,0,0-.71.13.48.48,0,0,1-.69,0c-1-.74-1.89-.32-2.72.13a3,3,0,0,1-3,0c-.4-.28-.84-.48-1.24-.76-.2.25-.12.52-.12.76,0,3.14,0,6.27,0,9.41,0,.33.08.69-.22,1l-.22-.1a2.17,2.17,0,0,0,.08-.88c0-3,0-6,0-9.08a1.15,1.15,0,0,0-.1-.55,3,3,0,0,1-.12-.94V59.8c0-.17,0-.34,0-.51,0-.62.21-.78.82-.83.27,0,.55,0,.82,0,5.46,0,10.91,0,16.37,0C51.43,58.42,54.09,58.68,56.7,58Z" fill="#f05c28"/><path d="M13.84,30.39a31.09,31.09,0,0,0,3.74,0c2.09,0,4.19,0,6.29,0a1.08,1.08,0,0,0,.56-.08,6.93,6.93,0,0,1,1.82-.23c8.93,0,17.85,0,26.78,0A18.62,18.62,0,0,1,59,31c.2.24.36.61.79.32.24,0,.5.07.4.43a4.89,4.89,0,0,1-2,1.06c-.38.07-.59.41-.93.52-1.72.57-2.89,1.89-4.19,3a2.05,2.05,0,0,0-.45.61,1.62,1.62,0,0,1-2.11.9,2.1,2.1,0,0,0-.5-.09c-.53,0-.74.23-.52.7s.11.79-.43.94-.52.34-.2.73.18.52-.26.56a4.34,4.34,0,0,1-.51,0H10.84c-.29,0-.6.09-.86-.13a13.27,13.27,0,0,1,.78-3.05A38.39,38.39,0,0,1,13.84,30.39Z" fill="#f17328"/><path d="M10,40.56H48.34c.19,0,.49.12.56-.14s-.24-.25-.39-.35-.32-.16-.24-.32.34-.56.64-.56c.66,0,.73-.19.35-.72s-.08-.88.46-1a.88.88,0,0,1,.68.08c.54.42,1.05,0,1.57,0,.08,0,.2-.17.24-.28.26-.84,1-1.27,1.54-1.88s1.66-1.09,2.27-1.9c.06-.08.24-.06.36-.09.54-.17,1.14-.23,1.41-.85,0,0,.1-.12.13-.11,1,.37,1.41-.67,2.19-.81l.12,0c.27-.21.53-.07.78,0A19.21,19.21,0,0,1,68.38,37c.18.21.46.4.35.76a.83.83,0,0,0-.1.73c.09.55.25,1.08-.41,1.42-.15.08-.13.3-.07.47a.57.57,0,0,1,0,.49c-.27.45-.24.75.31,1,.22.08.28.42.24.68s-.19.71.24,1c.18.12-.13.36-.26.39-1.1.28-1.91,1.2-3.12,1.29-.44,0-.85.5-1.27.78,0,0,0,.06,0,.06-.77.17-.79.7-.71,1.35,0,.29-.82,1-1.09.94l-.43-1.65a.46.46,0,0,1,.53-.11c.07,0,.12.11.19.15a.23.23,0,0,1-.09-.08c-.14-.4.34-.42.42-.7-.52-.06-.91-.7-1.52-.29A9.66,9.66,0,0,0,57.1,41.5a6.53,6.53,0,0,0-2.6-.69,1.78,1.78,0,0,0-.76-.05h-43a2,2,0,0,1-.76,0,.1.1,0,0,1,0-.07l0,0Z" fill="#f16829"/><path d="M31.11,86.64c0-3.61,0-7.22,0-10.83,0-.17,0-.34,0-.51s.21-.33.35-.12c.38.55,1.06.64,1.53,1.08a2.43,2.43,0,0,0,2.58-.18,2.58,2.58,0,0,1,3,0c.23.19.36.19.46-.09s.36-.3.66-.18c.59.25.69.15.72-.48a10.68,10.68,0,0,1,.1-2.46q0,7.14,0,14.28a24.87,24.87,0,0,1-.06,3,33.73,33.73,0,0,1-7.87-2.69C32.11,87.17,31.62,86.9,31.11,86.64Z" fill="#ef5028"/><path d="M68.73,37.76a17.37,17.37,0,0,0-6.52-5.35,6.34,6.34,0,0,0-2-.8.72.72,0,0,0-.54-.21c-.23.14-.38,0-.53-.14a17.09,17.09,0,0,0-5.63-.84c-9.28,0-18.56,0-27.85,0a2.78,2.78,0,0,1-1.25,0,31.77,31.77,0,0,1,11.84-9.53,30.83,30.83,0,0,1,10.42-2.92,31.82,31.82,0,0,1,16,2.47A32.36,32.36,0,0,1,82.17,47.61,31.17,31.17,0,0,1,77.48,67,32.12,32.12,0,0,1,57.76,81.4a33.85,33.85,0,0,1-7.43,1c-.35,0-.43-.12-.43-.44,0-2,0-3.91,0-5.87,0-.48.24-.43.55-.43a24.62,24.62,0,0,0,7.86-1A22.39,22.39,0,0,0,73.74,56a22.64,22.64,0,0,0-1-9.74,22.83,22.83,0,0,0-3.88-8.34A1.49,1.49,0,0,0,68.73,37.76Z" fill="#f3f3f3"/><path d="M56.7,58c-.46.56-1.15.48-1.75.58a12.11,12.11,0,0,1-1.91.08q-10.63,0-21.27,0c-.63,0-.82.13-.82.79,0,5.29,0,10.58,0,15.87,0,.24.08.51-.09.74A31.83,31.83,0,0,1,17.76,52.79c-.06-.74-.05-1.49-.13-2.23,0-.45.13-.52.53-.52,3.85,0,7.69,0,11.54,0,6.79,0,13.59.06,20.38,0a6.67,6.67,0,0,1,6.74,5.78A6.21,6.21,0,0,1,56.7,58Z" fill="#f3f3f3"/><path d="M10,40.7c.55,0,1.1-.05,1.65-.05H52.86a4.14,4.14,0,0,1,1.64.16H10.66C10.44,40.81,10.19,40.92,10,40.7Z" fill="#200005"/><path d="M61.62,45.66c.35-.24.7-.91,1,0,.06.14.22.13.33,0s.31-.15.41.05a.35.35,0,0,1-.19.47c-.2.11-.46.14-.46.44h-.66Z" fill="#f05c28"/><path d="M59.16,31.26l.53.14c-.3.48-.47.15-.65-.1l.06,0Z" fill="#f16829"/><path d="M62.75,46.68c.16,0,.39-.19.47.12A.22.22,0,0,1,63,47c-.3.07-.27-.16-.29-.35Z" fill="#f05c28"/><path d="M40.43,77.06c0,1.16,0,2.21,0,3.26,0,.19,0,.42-.25.47s-.29-.15-.39-.27a1.39,1.39,0,0,1,.1-1.76c.31-.33.08-.79.27-1.15C40.23,77.48,40.15,77.27,40.43,77.06Z" fill="#f05c28"/><path d="M32.67,77.63c-.14,0-.25-.09-.21-.24s.22-.22.39-.22.24,0,.21.13S32.86,77.59,32.67,77.63Z" fill="#f05c28"/></svg>