<svg xmlns="http://www.w3.org/2000/svg" viewBox="0 0 100 100"><circle cx="50" cy="50" r="70.71" fill="#fcfcfc"/><path d="M65.47,63a28,28,0,0,1-2.72,1.41,32.56,32.56,0,0,1-8.32,2.82,23.09,23.09,0,0,1-7.51.18A33.3,33.3,0,0,1,37,64.16c-1-.48-2-1-2.9-1.5l-.45-.28c-1-.65-2-1.2-2.93-1.85a4,4,0,0,1-.62-.47c-.12-.11-.29-.26-.14-.44s.29-.06.44,0a1.18,1.18,0,0,0,.43.19,2.89,2.89,0,0,1,.6.32c-.19-.25-.46-.4-.56-.69s-.2-.42.06-.55.35.07.49.2l.44.43a21.39,21.39,0,0,0,3.86,3.11,4.38,4.38,0,0,1,.69.42h0a1.09,1.09,0,0,1-.24-.24c-.09-.18-.45-.32-.26-.55s.41.07.6.16a12.74,12.74,0,0,0,1.63.87c1.14.59,2.25,1.23,3.44,1.73a22.65,22.65,0,0,0,6.88,1.67,21.75,21.75,0,0,0,10.95-2,26.76,26.76,0,0,0,3.25-1.86,2.52,2.52,0,0,1,.42-.24c.33-.07.61-.07.76.3A7.06,7.06,0,0,0,65.52,62a5.35,5.35,0,0,1,.67-.47,1.78,1.78,0,0,1,1-.33c.19,0,.34-.17.49-.3s.24-.3.45-.35a.3.3,0,0,1,.13,0c.13.11.4,0,.43.24s-.2.33-.35.43c-.81.52-1.66,1-2.5,1.47A1.07,1.07,0,0,0,65.47,63Z" fill="#106ce8"/><path d="M56.37,78l1.89-2.9c.34-.52.67-1,1-1.55.08-.13.14-.33.32-.34a4,4,0,0,1,.77,0c.07,0,.1.07.1.14a2.81,2.81,0,0,1,0,.29v6.09c0,.42,0,.43-.43.42-.81,0-.67.08-.67-.67,0-1.38,0-2.76,0-4.18-.21,0-.26.23-.35.37L56.84,79c-.31.47-.69.47-1,0-.74-1.11-1.47-2.22-2.21-3.32a.82.82,0,0,0-.35-.41v4.44c0,.44,0,.43-.41.43-.68,0-.68,0-.68-.69,0-2,0-3.9,0-5.85,0-.47,0-.38.43-.42a.82.82,0,0,1,.86.46C54.4,75.08,55.37,76.5,56.37,78Z" fill="#051f49"/><path d="M32.93,76.55l.21.11a1.71,1.71,0,0,1,1,2,1.58,1.58,0,0,1-.9,1.15,2.94,2.94,0,0,1-1.17.3c-1.47.07-3,0-4.43,0-.23,0-.26-.1-.26-.29,0-.69,0-1.37,0-2V73.56c0-.37,0-.37.36-.37h3.61a3.43,3.43,0,0,1,1.41.3,1.62,1.62,0,0,1,.35,2.85C33.06,76.4,33,76.43,32.93,76.55Z" fill="#05204a"/><path d="M67.63,25.65a7.57,7.57,0,0,1,1.13.66A61.94,61.94,0,0,1,75,30.82,30.4,30.4,0,0,1,78,33.44a.86.86,0,0,1-.4.46c-.27,0-.39-.23-.56-.37a18.85,18.85,0,0,0-2-1.74c-.68-.56-1.32-1.19-2-1.68a18.64,18.64,0,0,1,1.87,2.74,22,22,0,0,1,1.46,3.06.92.92,0,0,1,.12.56c-.21.29-.46,0-.68.05a3.37,3.37,0,0,1-.59-1.22,20.68,20.68,0,0,0-4.82-6.84,9.85,9.85,0,0,0-1.4-1.14,26.93,26.93,0,0,1,4.21,6.53A16.6,16.6,0,0,1,74,36.1a8,8,0,0,1,.59,2.09c0,.14,0,.32-.26.21s-.31,0-.45-.12a1,1,0,0,1-.24-.53,24.31,24.31,0,0,0-6.53-11c-.28-.26-.73-.4-.76-.89C66.66,25.24,66.79,25.22,67.63,25.65Z" fill="#2fd2d6"/><path d="M71.44,78.26V73.54c0-.35,0-.36.35-.35.94,0,.78-.14.78.75,0,1.92,0,3.83,0,5.75,0,.41.1.45-.44.47a1,1,0,0,1-.87-.37c-1.35-1.54-2.73-3.06-4.09-4.58a.2.2,0,0,0-.21-.08c0,.11,0,.23,0,.36v4.19c0,.46.06.46-.43.46-.69,0-.69,0-.69-.7v-5.8c0-.51,0-.44.43-.46a.85.85,0,0,1,.76.31c1.33,1.48,2.67,2.94,4,4.4A1.07,1.07,0,0,0,71.44,78.26Z" fill="#041f4a"/><path d="M74.63,76.66c0-1,0-2.08,0-3.12,0-.34,0-.35.35-.35,1.1,0,2.21,0,3.31,0a4.42,4.42,0,0,1,2.34.73,3.37,3.37,0,0,1-.42,5.77,3.84,3.84,0,0,1-1.44.41c-1.28.07-2.57,0-3.85,0-.25,0-.3-.09-.29-.32V76.66Z" fill="#04214d"/><path d="M40.45,77.82l1.76,2.32H41.16c-.2,0-.31-.15-.42-.29-.41-.53-.82-1-1.22-1.59A.61.61,0,0,0,39,78q-.9,0-1.8,0c-.24,0-.31.08-.3.31,0,.51,0,1,0,1.51,0,.24,0,.35-.32.36-.84,0-.84,0-.84-.8V73.61c0-.42,0-.42.41-.43H39a4.48,4.48,0,0,1,1.62.31,2.09,2.09,0,0,1,1.4,1.78,2.11,2.11,0,0,1-.93,2.15C40.93,77.56,40.71,77.66,40.45,77.82Z" fill="#051f4a"/><path d="M37,23.29a13.55,13.55,0,0,1,1.8-.87,33.8,33.8,0,0,1,5.1-1.77,25.77,25.77,0,0,1,5.39-.78,25.14,25.14,0,0,1,8.44,1.19,41.37,41.37,0,0,1,4.86,1.88,1.66,1.66,0,0,1,.47.26,10.59,10.59,0,0,0,1.1.6c.14.09.29.18.27.36s-.2.23-.37.24a.52.52,0,0,1-.21,0c-.17-.08-.29-.21-.49,0s-.48.05-.72,0c-1.11-.6-2.17-1.29-3.33-1.81a21.75,21.75,0,0,0-7-1.84,23.69,23.69,0,0,0-7.87.6A21.48,21.48,0,0,0,38,24.11a2.66,2.66,0,0,1-.72.4c-.24,0-.52.18-.63-.2,0,0,0-.11,0-.13-.47-.4-.46-.5.13-.78C36.84,23.37,36.93,23.38,37,23.29Z" fill="#2ef4da"/><path d="M42.74,80.14c.44-.88.85-1.67,1.25-2.47.69-1.38,1.39-2.75,2.07-4.13a.56.56,0,0,1,.59-.38c1,0,.72-.17,1.2.73,1.08,2,2.15,4.11,3.24,6.2a3.71,3.71,0,0,1-1.1,0c-.13,0-.17-.13-.22-.22-.21-.39-.42-.77-.61-1.17a.48.48,0,0,0-.48-.31c-1.2,0-2.41,0-3.61,0a.4.4,0,0,0-.44.28c-.15.37-.36.73-.52,1.1a.43.43,0,0,1-.47.32C43.37,80.13,43.09,80.14,42.74,80.14Z" fill="#051e47"/><path d="M18.1,80.15a1.83,1.83,0,0,1,.23-.62c1-2,2.05-4,3.06-6,.13-.26.3-.3.56-.34.63-.08.93.17,1.21.74,1,2,2.07,4,3.11,6l.1.21a3.79,3.79,0,0,1-1.11,0c-.15,0-.19-.17-.25-.28-.2-.38-.41-.77-.6-1.17a.38.38,0,0,0-.41-.24c-1.2,0-2.41,0-3.61,0a.45.45,0,0,0-.47.32c-.16.37-.37.72-.53,1.09a.44.44,0,0,1-.48.31A7.2,7.2,0,0,0,18.1,80.15Z" fill="#051e49"/><path d="M65.47,63a.31.31,0,0,1,.18-.21c.78-.42,1.54-.88,2.29-1.35a1.56,1.56,0,0,0,.72-.6c-.11-.15-.22,0-.32,0s-.06-.11,0-.17c0-.21.19-.29.34-.39a19.77,19.77,0,0,0,5.58-6.38,21.67,21.67,0,0,0,1.72-4c0-.13,0-.3.24-.33.16.2.28.41.44.6a1.88,1.88,0,0,1-.11.62,20.58,20.58,0,0,1-3.6,6.52c.49-.36,1.06-.88,1.68-1.34s1.1-1,1.7-1.44c.15-.1.27-.24.47-.24s.47-.12.57.09-.19.31-.3.47-.25.2-.34.34a31.74,31.74,0,0,1-3,2.52,61.81,61.81,0,0,1-7.63,5A2.12,2.12,0,0,1,65.47,63Z" fill="#1986de"/><path d="M37,23.29c-.15.25-.52.25-.62.56s.41.07.43.35a.69.69,0,0,1-.36.21,8.13,8.13,0,0,0-2.73,1.73,22.67,22.67,0,0,0-4.55,5.54,6.62,6.62,0,0,1-.95,1.51.57.57,0,0,1-.46-.48A1.51,1.51,0,0,1,28,32a24.5,24.5,0,0,1,3.3-4.74c-.4.19-.7.6-1.15.79a2.73,2.73,0,0,0-1.78,1.07c-.21.31-.58.46-.83.74-.21.07-.37.28-.62.27s-.36-.18-.5-.33a9.22,9.22,0,0,1,1.52-1.2,61.84,61.84,0,0,1,8.31-5.06A2.65,2.65,0,0,1,37,23.29Z" fill="#33d8d4"/><path d="M30.83,59.93c-.16.13-.23,0-.33-.09l-.28-.18c-.08,0-.17-.06-.22,0s0,.12.05.17a4.44,4.44,0,0,0,.69.6c.87.55,1.72,1.12,2.61,1.63.13.07.28.12.3.29a20.69,20.69,0,0,1-2.19-1.26,63.37,63.37,0,0,1-6.57-4.71,4,4,0,0,1-.61-.56,1.05,1.05,0,0,1-.12-.88c.18-.15.28,0,.4.12.32.21.57.5.88.73.56.48,1.16.92,1.71,1.42a31.91,31.91,0,0,1-2-3.11,23.18,23.18,0,0,1-1.53-3.46.72.72,0,0,1,0-.41c.16-.16.29-.35.44-.52.23,0,.24.25.29.41a20.65,20.65,0,0,0,3.93,7,22.77,22.77,0,0,0,2.35,2.46C30.69,59.68,30.82,59.76,30.83,59.93Z" fill="#1981de"/><path d="M77.56,33.85c.17-.11.16-.39.42-.4a.83.83,0,0,1,.16.09c1,.92,1.92,1.85,2.82,2.83a52.28,52.28,0,0,1,3.48,4.12c.7.92,1.38,1.85,2,2.82a.64.64,0,0,1,0,.83c-.43.57-.77,1.2-1.25,1.73-.24,0-.5.08-.65-.21a6.17,6.17,0,0,1,1-1.51.74.74,0,0,0,0-1c-1.2-1.7-2.47-3.35-3.83-4.92a54.28,54.28,0,0,0-4-4.16C77.59,34,77.51,34,77.56,33.85Z" fill="#27b9da"/><path d="M24.19,54.93c.15.3,0,.62.09.91a14.32,14.32,0,0,1-1.63-1.38,53.74,53.74,0,0,1-7.07-7.7c-.1-.13-.18-.27-.27-.41-.22-.47-.15-.57.4-.52A7,7,0,0,1,17,47.34a61.16,61.16,0,0,0,5.35,5.8,4.43,4.43,0,0,1,.68.62c.26.28.62.46.88.75C24,54.64,24.17,54.74,24.19,54.93Z" fill="#1d97de"/><path d="M63.71,76.73V79.8c0,.34,0,.35-.35.35-1,0-.78.11-.79-.75,0-1.92,0-3.83,0-5.75a2.81,2.81,0,0,1,0-.29c0-.12.07-.17.18-.17h0c.91-.09.91-.09.91.82Z" fill="#07234f"/><path d="M84.59,45.66c.16.18.43.05.59.21A15.92,15.92,0,0,1,83.59,48a55.52,55.52,0,0,1-5.68,6.1,10.14,10.14,0,0,1-1.22,1c.11-.33.45-.45.6-.74-.14-.21-.35,0-.51-.08s.2-.32.3-.49a15.47,15.47,0,0,1,1.38-1.3A59.85,59.85,0,0,0,84.2,46C84.3,45.84,84.35,45.63,84.59,45.66Z" fill="#1ea2d7"/><path d="M15.73,45.94c-.45-.09-.5,0-.42.41-.63-.76-1.16-1.6-1.72-2.41a.39.39,0,0,1,.05-.49c.35-.52.69-1.06,1.06-1.57A52.7,52.7,0,0,1,18.62,37c.06-.07.1-.17.2-.19.31-.24.47,0,.62.19a1.29,1.29,0,0,1-.48.76,48.35,48.35,0,0,0-4.33,5.55.67.67,0,0,0,0,.88c.31.45.64.89.95,1.35C15.68,45.64,15.82,45.76,15.73,45.94Z" fill="#26acdb"/><path d="M19.43,37c-.05,0-.15,0-.16-.06-.11-.22-.27-.18-.45-.14a42,42,0,0,1,3.25-3.29c1.31-1.23,2.68-2.39,4.11-3.5a1.94,1.94,0,0,1,.24-.15c.23,0,.49,0,.51.33s-.5.52-.76.76a5,5,0,0,1-.58.45,31.6,31.6,0,0,0-2.51,2.26,29.2,29.2,0,0,0-3.11,3C19.83,36.78,19.7,37,19.43,37Z" fill="#2dc6d6"/><path d="M64,24.31a1.72,1.72,0,0,0,.24,0c.15-.06.16-.16,0-.25a2.06,2.06,0,0,0-.53-.33A1.27,1.27,0,0,1,63,23.2a3.55,3.55,0,0,1,1,.47c1.12.59,2.22,1.2,3.32,1.8a.5.5,0,0,1,.23.18s-.07,0-.1,0a.8.8,0,0,0-1.21.23.26.26,0,0,1-.27-.06,8,8,0,0,0-1.7-1.13C64.22,24.55,64,24.53,64,24.31Z" fill="#3de4dc"/><path d="M63.22,62.63c-.82.5-1.58,1.08-2.43,1.53a23.27,23.27,0,0,1-6.14,2.27,21.11,21.11,0,0,1-5.37.48,22.67,22.67,0,0,1-7.61-1.69,24.43,24.43,0,0,1-3.42-1.74l-.18-.07a19,19,0,0,1-6-5.49,21.47,21.47,0,0,1-3.72-8.7,1.29,1.29,0,0,1,0-.19c0-.13,0-.3.12-.34s.21.13.26.24a18.45,18.45,0,0,0,1.12,2.22c.83,1.29,1.4,2.74,2.19,4.05a22.44,22.44,0,0,0,3.45,4.31,1.57,1.57,0,0,0,.42.35L36,60a20.79,20.79,0,0,0,8.48,4.63,22,22,0,0,0,4.42.71,20.65,20.65,0,0,0,10-1.93,19.39,19.39,0,0,0,4.74-3A19.67,19.67,0,0,0,68.27,55,13.12,13.12,0,0,0,69.35,53c.23-.61.68-1.11.94-1.71a12.58,12.58,0,0,0,1-2c.07-.17.12-.46.33-.41s.16.36.12.56a25.26,25.26,0,0,1-1.36,4.41,8.93,8.93,0,0,1-.37.84,21.46,21.46,0,0,1-3.14,4.78,19.62,19.62,0,0,1-3.27,3A.78.78,0,0,1,63.22,62.63Z" fill="#041b49"/><path d="M66.24,61.56a10.69,10.69,0,0,1-2.08,1.37c-.13.07-.26.27-.46.09a7.35,7.35,0,0,1,1.43-1.3,21.86,21.86,0,0,0,4.3-5.14c.3-.52.59-1,.84-1.59s.4-1,.67-1.4a23.43,23.43,0,0,0,2.2-3.7c.22-.45.41-.92.64-1.37a.15.15,0,0,1,.13-.05.28.28,0,0,1,.15.24,16.57,16.57,0,0,1-1,3.31,23,23,0,0,1-2,4,25.13,25.13,0,0,1-3.88,4.79A5.33,5.33,0,0,1,66.24,61.56Z" fill="#041c4d"/><path d="M30.83,59.93a21.65,21.65,0,0,1-6.67-9.84.82.82,0,0,0-.15-.36,3,3,0,0,1-.4-1.37.21.21,0,0,1,.11-.25c.14,0,.18.1.24.19a22.1,22.1,0,0,0,3.23,5.1,2.45,2.45,0,0,1,.45.74,24.92,24.92,0,0,0,2.91,4.66c.15.19.23.42.38.61.19.35.58.54.76,1C31.32,60.31,31.12,60,30.83,59.93Z" fill="#041c4a"/><path d="M76.19,49.56c-.23.62-.44,1.25-.68,1.87A20.71,20.71,0,0,1,72,57.2a16.3,16.3,0,0,1-3.73,3.4h-.12c-.05-.19.1-.3.21-.41a23,23,0,0,0,3-3.85c.6-1,1.1-2,1.65-3a5.22,5.22,0,0,0,.91-1.08,21.09,21.09,0,0,0,1.81-2.94c.18-.36.35-.73.53-1.1s.27-.29.35,0A2.62,2.62,0,0,1,76.19,49.56Z" fill="#031b47"/><path d="M35.71,62.73a1,1,0,0,1-.43-.19,15,15,0,0,1-2.69-2.21,5.29,5.29,0,0,1-.78-.72,18.58,18.58,0,0,1-2.92-3.86,24.19,24.19,0,0,1-2.74-6.63c0-.14,0-.28-.07-.42a.59.59,0,0,1,0-.14c0-.1.05-.19.18-.19a.55.55,0,0,1,.19.21,28.46,28.46,0,0,0,2.81,5.14,10.82,10.82,0,0,1,.59,1.18A21.75,21.75,0,0,0,33.3,60a25.88,25.88,0,0,0,2.2,2.12c.16.15.36.27.43.51S35.81,62.81,35.71,62.73Z" fill="#031c4b"/><path d="M26.15,48.58a.28.28,0,0,1,0,.09c.08.12,0,.29.09.4a31.93,31.93,0,0,0,1.16,3.46,24.39,24.39,0,0,0,4.2,6.76c.08.1.2.17.2.32a4.37,4.37,0,0,1-.6-.54c-.08-.08-.16-.17-.29-.07s-.05.2,0,.29,0,.08,0,.12a12.74,12.74,0,0,1-1.56-2,23.38,23.38,0,0,1-1.77-3c-.14-.31-.31-.61-.47-.91a7.83,7.83,0,0,1-1-2.23,9.33,9.33,0,0,1-.66-2.54c.14-.26.4,0,.56-.13A.11.11,0,0,1,26.15,48.58Z" fill="#198bde"/><path d="M35.89,62.65a22.41,22.41,0,0,1-6-7.27,1.49,1.49,0,0,1-.19-.45.86.86,0,0,1,.51-.21c.44.76.84,1.54,1.32,2.27a20.91,20.91,0,0,0,4,4.52c.8.68,1.68,1.26,2.52,1.9a.93.93,0,0,1-.48-.2c-.53-.32-1.07-.62-1.63-1,0,.33.36.33.33.59C36.07,63,36,62.79,35.89,62.65Z" fill="#1979de"/><path d="M70.36,55a9.39,9.39,0,0,1-.9,1.72,20.87,20.87,0,0,1-4.29,5.08A17,17,0,0,1,63.7,63c0-.22,0-.46-.37-.32,0,0-.08-.05-.11-.07A24.72,24.72,0,0,0,66.1,60.1a21.16,21.16,0,0,0,3.58-5,1.61,1.61,0,0,1,.26-.46A1.49,1.49,0,0,1,70.36,55Z" fill="#1c86dc"/><path d="M71.41,56.39a20.75,20.75,0,0,1-2,2.84c-.38.48-.83.9-1.23,1.36-.21.19-.41.4-.63.58s-.33.25-.56.13-.23,0-.35.09-.2.26-.4.17c.45-.42.9-.84,1.34-1.27a23.36,23.36,0,0,0,3.28-4.13c0-.07.1-.12.15-.19C71.16,56.1,71.27,56.25,71.41,56.39Z" fill="#1986de"/><path d="M35.89,62.65l.4.2.2.27h0a1.75,1.75,0,0,1-.78-.39C35.77,62.72,35.85,62.72,35.89,62.65Z" fill="#09378d"/><path d="M36.49,63.12a.61.61,0,0,1,.13,0s.1.08.09.09-.1,0-.14,0a.28.28,0,0,1-.08-.11Z" fill="#09378d"/><path d="M30.26,79.24H28.85c-.21,0-.32,0-.31-.29,0-.55,0-1.1,0-1.65,0-.16,0-.29.23-.29a28.67,28.67,0,0,1,3.21.07,1.17,1.17,0,0,1,1,.63,1,1,0,0,1-.62,1.4,3.45,3.45,0,0,1-1.15.13c-.31,0-.62,0-.93,0Z" fill="#fdfefd"/><path d="M30,76.16H28.82c-.21,0-.29-.07-.29-.28,0-.52,0-1,0-1.56,0-.18.08-.26.26-.25.85,0,1.69,0,2.53,0a2,2,0,0,1,.8.2.85.85,0,0,1,.55.84.88.88,0,0,1-.57.87,2.9,2.9,0,0,1-1,.17c-.35,0-.71,0-1.07,0Z" fill="#fcfcfc"/><path d="M84.59,45.66c-1,1.33-2,2.65-3.14,3.89a58.86,58.86,0,0,1-4.29,4.36c-.26-.09-.11-.26,0-.38.18-.39.42-.76.63-1.14a3.07,3.07,0,0,0,.31-.66,18,18,0,0,0,1.63-5.25,18.9,18.9,0,0,0-1-9.22,9.25,9.25,0,0,1-.48-1.06,8.43,8.43,0,0,0-1-2.18c-.09-.18-.27-.35-.12-.58l.49.41c1.18,1.1,2.31,2.23,3.39,3.43a53.1,53.1,0,0,1,3.74,4.59c.36.52.76,1,1.09,1.55a.42.42,0,0,1,0,.53C85.37,44.51,85,45.09,84.59,45.66Z" fill="#041c45"/><path d="M74.44,38.24a9,9,0,0,0-.53-1.91,2,2,0,0,0-.07-.23c0-.19.11-.1.18-.05a1.81,1.81,0,0,1,.32.41,18,18,0,0,1,2.55,5.85,5,5,0,0,1,0,2.9,18,18,0,0,1-1.36,3.69A16,16,0,0,1,74.31,51c-.09.13-.21.45-.43.09.15-.93.5-1.8.66-2.73,0-.14,0-.28.07-.43a22.4,22.4,0,0,0-.09-8.71A6.22,6.22,0,0,1,74.44,38.24Z" fill="#041d4b"/><path d="M64.39,24.58c.31.3.75.33,1.08.6a4.08,4.08,0,0,0,.85.69c.36.32.73.64,1.07,1a23.62,23.62,0,0,1,5.09,7.41,24.71,24.71,0,0,1,1.39,4,1,1,0,0,1,.25.57c0,.14.07.33-.09.39s-.24-.13-.29-.25c-.16-.37-.31-.75-.48-1.11a23.48,23.48,0,0,0-1.71-3.16,6.72,6.72,0,0,0-.58-.85l-.12-.17a24.28,24.28,0,0,0-2.72-4.81,21.88,21.88,0,0,0-3.54-3.72c-.15-.12-.33-.22-.35-.45C64.27,24.61,64.3,24.55,64.39,24.58Z" fill="#04204c"/><path d="M73,33.86c-.51-1-1-1.92-1.52-2.83a25.46,25.46,0,0,0-3-4,2.49,2.49,0,0,1,1,.58,20.3,20.3,0,0,1,6.17,8.72,1.4,1.4,0,0,0,.09.17,1.18,1.18,0,0,1,.35.67,9.54,9.54,0,0,1,.5,2.11c0,.12-.1.21-.24.09a1,1,0,0,1-.25-.4,17.9,17.9,0,0,0-1.52-2.79C74.09,35.35,73.48,34.64,73,33.86Z" fill="#041e4a"/><path d="M76.31,36.48a18.6,18.6,0,0,0-1.66-3.63,22.25,22.25,0,0,0-1.86-2.73,1.11,1.11,0,0,1-.17-.3A14.79,14.79,0,0,1,75,31.7a13.75,13.75,0,0,1,2.25,3.21c.24.43.45.87.66,1.31A20.58,20.58,0,0,1,79,39.55c0,.13,0,.31-.14.33s-.27-.15-.34-.28a13.7,13.7,0,0,0-2.11-2.74A.66.66,0,0,1,76.31,36.48Z" fill="#041e4b"/><path d="M76.31,36.48c.1.08.1.21.17.31A3.62,3.62,0,0,1,77,38.21a20.23,20.23,0,0,1,.7,6.79A16.68,16.68,0,0,1,77,49.21c-.16.31-.11.71-.44.93a.49.49,0,0,1-.38-.58l.3-1.36a22.34,22.34,0,0,1,.29-2.94c0-.22,0-.44.1-.66a6,6,0,0,0-.11-2.34c-.08-.44-.09-.89-.19-1.33a.76.76,0,0,0-.11-.36.7.7,0,0,1,0-1,.21.21,0,0,0,0-.26A13.8,13.8,0,0,0,75.85,37c0-.15-.09-.31-.13-.46a.31.31,0,0,1,.43,0A.1.1,0,0,0,76.31,36.48Z" fill="#19b4e0"/><path d="M73.35,37.77c.3.42.37.95.67,1.45a5.32,5.32,0,0,0-.15-1c.19,0,.4-.13.55.09l0-.09a12.67,12.67,0,0,1,.48,2.28,22.81,22.81,0,0,1,.2,4.45,16.23,16.23,0,0,1-.4,3c-.1.31-.28.33-.41.06a3.29,3.29,0,0,1-.48-1.25c.09-.76.41-1.47.51-2.23a5.39,5.39,0,0,0,0-1.7,17.16,17.16,0,0,0-1.23-4,1.91,1.91,0,0,1-.21-.65C72.9,37.9,73,37.71,73.35,37.77Z" fill="#1bb4de"/><path d="M77.84,36.22c-.4-.67-.69-1.39-1.1-2s-1-1.52-1.58-2.26A2.25,2.25,0,0,1,75,31.7c.36.08.53.41.78.62a7,7,0,0,1,1.25,1.12,6.37,6.37,0,0,0,.6,1.16,5.49,5.49,0,0,1,.68,1.5C78.18,36.17,78,36.17,77.84,36.22Z" fill="#1b98bc"/><path d="M73,33.86a3.52,3.52,0,0,1,.85,1,7.8,7.8,0,0,1,.8,1.25.52.52,0,0,1-.37.39L74,36.15s-.06-.12-.14,0C73.61,35.33,73.26,34.61,73,33.86Z" fill="#12759b"/><path d="M75.75,76.62c0-.73,0-1.46,0-2.19,0-.24.07-.32.31-.32.81,0,1.63,0,2.43,0a2.42,2.42,0,0,1,2.29,1.67,2.47,2.47,0,0,1-2.29,3.35c-.82.08-1.66,0-2.48,0-.25,0-.26-.14-.26-.31C75.75,78.14,75.75,77.38,75.75,76.62Z" fill="#fdfdfd"/><path d="M36.85,75.6c0-.41,0-.81,0-1.22,0-.21.07-.28.28-.28.76,0,1.52,0,2.28.05a2.07,2.07,0,0,1,.7.18A1.32,1.32,0,0,1,41,75.49a1.42,1.42,0,0,1-.67,1.28,1.75,1.75,0,0,1-1,.3c-.73,0-1.46,0-2.19,0-.21,0-.29-.06-.28-.28,0-.4,0-.81,0-1.21Z" fill="#fefefd"/><path d="M37.3,24.4c.6-.36,1.19-.74,1.79-1.08a21.16,21.16,0,0,1,8.42-2.71,22.56,22.56,0,0,1,9.62,1,23,23,0,0,1,5.21,2.51l.37.22a16.3,16.3,0,0,1,4.35,3.84A21.13,21.13,0,0,1,70.56,34a28.36,28.36,0,0,1,1.19,4c0,.23.19.57-.08.65s-.3-.29-.38-.49A11.68,11.68,0,0,0,70.22,36c-.79-1.22-1.31-2.61-2.1-3.84a3.51,3.51,0,0,0-.27-.4,20.6,20.6,0,0,0-9.35-8.12A21.15,21.15,0,0,0,48.73,22a19.54,19.54,0,0,0-4.79.82,18.75,18.75,0,0,0-4.59,2,20.54,20.54,0,0,0-4.55,3.71,17.76,17.76,0,0,0-2.92,3.93c-.94,1.69-1.88,3.37-2.77,5.08a6.22,6.22,0,0,0-.46,1.13c-.06.1-.09.27-.25.22s-.11-.18-.1-.29,0-.25.05-.37a23.87,23.87,0,0,1,1.54-5,18.85,18.85,0,0,1,1.7-3.16,21.39,21.39,0,0,1,3.69-4.25A8,8,0,0,1,37.3,24.4Z" fill="#05214d"/><path d="M70.45,34c-.32-.66-.61-1.32-.94-2a21.11,21.11,0,0,0-4.75-6c-.65-.59-1.37-1.09-2.05-1.64h.15c.4.1.4.11.55-.28a.49.49,0,0,1,.39.24c.14.17.39.2.48.42s.35.29.52.44a22,22,0,0,1,6.13,8.46.07.07,0,0,1,0,0C71,34.06,70.7,34,70.45,34Z" fill="#3de4dc"/><path d="M37.3,24.4c-.9.74-1.84,1.43-2.67,2.26A21.56,21.56,0,0,0,32,29.8c-.09.12-.19.23-.28.34-.2-.09-.46.14-.63-.1s.13-.4.25-.57A22.63,22.63,0,0,1,35.42,25a4.57,4.57,0,0,1,1-.66l.34-.09c0,.2,0,.34.3.24A.85.85,0,0,1,37.3,24.4Z" fill="#40dfd8"/><path d="M64.28,24.69c-.18-.11-.39-.2-.48-.42l.17,0c.11.13.32.12.42.27Z" fill="#135d6f"/><path d="M46.86,74.24l1.7,3.3H45.22Z" fill="#fcfdfb"/><path d="M20.52,77.54l1.57-3.21a17.63,17.63,0,0,1,1.7,3.21Z" fill="#fcfcfa"/><path d="M74.65,56a18.21,18.21,0,0,1-2.08,1.6c.47-.73,1-1.4,1.5-2.13a25.77,25.77,0,0,0,1.32-2.27,20.26,20.26,0,0,0,1-2.47,13,13,0,0,1,1.12-1.34c.41-.52.75-1.08,1.11-1.64.06-.11.12-.27.27-.24s.14.2.15.32a15.7,15.7,0,0,1-1.19,3.54A16.67,16.67,0,0,1,75,55.67,3.89,3.89,0,0,1,74.65,56Z" fill="#031b45"/><path d="M78.94,47.81l0-.28-.72,1.16a11.17,11.17,0,0,1-.83,1.09,6.7,6.7,0,0,1-1,1,4.14,4.14,0,0,1,.18-.6,6.41,6.41,0,0,1,.31-.87,11.62,11.62,0,0,0,1.8-3,1.27,1.27,0,0,1,.21-.44c.08-.1.16-.06.22.05a2.92,2.92,0,0,1,.09,1.55C79.16,47.56,79.17,47.77,78.94,47.81Z" fill="#1275ab"/><path d="M74.65,56a27.09,27.09,0,0,0,2.13-2.88c.36-.56.62-1.17,1-1.74.14.13.2.34.4.41a7.55,7.55,0,0,1-.69,1.36c-.12.24-.39.43-.29.75-.07.2-.32.24-.38.43-.14,0-.23.1-.33.18a18.17,18.17,0,0,0-1.55,1.36A.36.36,0,0,1,74.65,56Z" fill="#1476b4"/><path d="M36.44,24.29a22.82,22.82,0,0,0-4.52,4.53A7.18,7.18,0,0,0,31.11,30c0,.1,0,.22-.09.32a20.83,20.83,0,0,0-1.64,3.14c0,.08-.09.14-.13.21A24.67,24.67,0,0,0,27,37.56a9.69,9.69,0,0,1-.46.91.27.27,0,0,1-.12.09c-.16,0-.17-.15-.18-.28a.59.59,0,0,1,0-.14,1.59,1.59,0,0,0,.06-.43,20.07,20.07,0,0,1,1.58-4.22.59.59,0,0,1,.28-.32c.51-.9,1-1.82,1.57-2.69a22.15,22.15,0,0,1,4.69-5.11A6.25,6.25,0,0,1,36.44,24.29Z" fill="#04214c"/><path d="M30.16,28a6.87,6.87,0,0,1,1.45-1,1.23,1.23,0,0,1-.31.45A26.36,26.36,0,0,0,28,32.21c-.08.15-.15.32-.23.48A2.65,2.65,0,0,1,27.18,34a20.64,20.64,0,0,0-3,4.6,4.37,4.37,0,0,1-.23.49c0,.09-.11.23-.24.21s-.14-.19-.15-.31a11.33,11.33,0,0,1,.28-1.15A21.77,21.77,0,0,1,26.61,32a22.64,22.64,0,0,1,3.11-3.66A1.6,1.6,0,0,1,30.16,28Z" fill="#042049"/><path d="M25.54,31.31l1.39-1.14c.18-.13.32-.34.58-.32.08.18,0,.31-.13.44a21.69,21.69,0,0,0-3.37,6,1.28,1.28,0,0,1-.23.43,17.93,17.93,0,0,0-2.14,2.69c-.23.39-.3.38-.48,0a22.38,22.38,0,0,1,.68-2.39c.46-.91.8-1.87,1.35-2.74A14,14,0,0,1,25.54,31.31Z" fill="#041e47"/><path d="M23.71,36.69c.4-.9.71-1.84,1.17-2.72a24.14,24.14,0,0,1,2.37-3.72,1.07,1.07,0,0,0,.26-.4c0-.08.08-.2.16-.24.44-.24.68-.68,1-1a2.3,2.3,0,0,1,1.45-.6,28.61,28.61,0,0,0-2.31,2.49,20.39,20.39,0,0,0-3.52,6.39c-.11.32-.23.64-.35,1a.57.57,0,0,1-.53-.22A1.08,1.08,0,0,1,23.71,36.69Z" fill="#2dc6d6"/><path d="M27.12,34l.68-1.26c.05.22.3.28.38.48a24.69,24.69,0,0,0-1.58,4c-.07.2-.11.41-.16.61s0,.28-.1.4a.19.19,0,0,0,0,.08,3.49,3.49,0,0,1-.22,1.24c-.11.19-.24.35-.49.32s-.27-.24-.29-.43a14.43,14.43,0,0,1,.79-3.17A9.77,9.77,0,0,1,27.12,34Z" fill="#28c5de"/><path d="M23.7,50.65a24.83,24.83,0,0,0,3.77,6.86,13.65,13.65,0,0,1-2.08-1.62,14.61,14.61,0,0,1-3.07-4.47A25.22,25.22,0,0,1,21.1,48a1.23,1.23,0,0,1,0-.38c.14-.47.29-.2.41,0A15.17,15.17,0,0,0,23.13,50,3,3,0,0,1,23.7,50.65Z" fill="#041b46"/><path d="M23.5,37.66c.2,0,.34.09.48.19L23.7,39c-.05.35-.14.72.29.92.09,0,.1.16.09.26a.68.68,0,0,1,0,.14c0,.12,0,.24-.06.36-.1.42-.22.85-.36,1.26a7,7,0,0,0,.29,4.63,9,9,0,0,1,.55,1.61c-.18.42-.23.43-.59.2-.11,0-.05-.18-.18-.2,0,.53.25,1,.3,1.53,0,.26-.09.47-.39.51-.31-.14-.26-.46-.36-.7s-.07-.41-.17-.6a18.86,18.86,0,0,1-.59-3.49,21.19,21.19,0,0,1,.33-5.84,4.79,4.79,0,0,1,.25-1,1.15,1.15,0,0,0,.11-.36,1.42,1.42,0,0,1,0-.22C23.31,37.91,23.26,37.69,23.5,37.66Z" fill="#19a9db"/><path d="M23.23,49c.17.41.2.87.39,1.27,0,.14.05.27.08.41a7.93,7.93,0,0,1-1.8-2.07c-.23-.33-.41-.69-.63-1-.08-.12-.06,0-.1.06A1.39,1.39,0,0,1,21.06,46c.33-.13.35.17.41.33A10.23,10.23,0,0,0,23,48.9C23.08,49,23.12,49.08,23.23,49Z" fill="#1270ad"/><path d="M22.44,51.42a22.51,22.51,0,0,0,1.4,2.43,11.56,11.56,0,0,0,1.37,1.76.59.59,0,0,1,.18.28l-1.2-1-1.25-1.09c-.17-.45-.49-.81-.69-1.23-.08-.17-.23-.32-.13-.53C22.43,52,22.27,51.61,22.44,51.42Z" fill="#1469a9"/><path d="M22.13,52.11A16.44,16.44,0,0,0,23,53.7c.06.1,0,.14-.07.14-.9-.83-1.76-1.68-2.62-2.55A49.18,49.18,0,0,1,16,46.2c-.07-.09-.15-.17-.23-.26-.36-.63-.84-1.19-1.23-1.8-.29-.44-.3-.44,0-.89A48.81,48.81,0,0,1,19,37.5a2.17,2.17,0,0,0,.43-.52,12.7,12.7,0,0,0,1.15-1.17,30,30,0,0,1,2.32-2.19.75.75,0,0,1,.13-.06c.13.22,0,.37-.13.53a16.85,16.85,0,0,0-1.34,2.81,19.63,19.63,0,0,0-1.32,7.27,18.06,18.06,0,0,0,.24,2.32A20.19,20.19,0,0,0,22,51.6.81.81,0,0,1,22.13,52.11Z" fill="#041c46"/><path d="M21.48,36.78a12.72,12.72,0,0,1,1.05-2.28,6.5,6.5,0,0,0,.5-.94,2.68,2.68,0,0,1,.71-.75c.51-.44,1-.86,1.51-1.33a.46.46,0,0,1,.29-.17c-.48.63-1,1.22-1.46,1.87a17.74,17.74,0,0,0-2,3.66,1.23,1.23,0,0,1-.14.25A1,1,0,0,0,21.48,36.78Z" fill="#1c93b9"/><path d="M63.83,60.4a16,16,0,0,1-2.6,2,21.1,21.1,0,0,1-7.67,2.87,18.88,18.88,0,0,1-4,.31,21.71,21.71,0,0,1-9.73-2.66,23.77,23.77,0,0,1-3.53-2.43,6.2,6.2,0,0,1-.45-.44c.17-.18.42-.16.63-.25A.91.91,0,0,1,37,60a20.72,20.72,0,0,0,11.19,4.63,20.29,20.29,0,0,0,10.9-2,21,21,0,0,0,3.64-2.25,1.12,1.12,0,0,1,.5-.3A1.06,1.06,0,0,1,63.83,60.4Z" fill="#186ee2"/><path d="M70.36,55a.44.44,0,0,1-.42-.41c.36-.92.76-1.82,1-2.77s.47-1.68.67-2.53a1,1,0,0,0,0-.54,13.92,13.92,0,0,1-1.32,2.55c-.35.05-.42-.18-.43-.45a4.84,4.84,0,0,1,.57-1.27,23.43,23.43,0,0,0,1.14-3.13.53.53,0,0,1,.17-.34s.09,0,.12,0c.26-.6.56-.13.84,0a5.54,5.54,0,0,1-.14,1.77,17.7,17.7,0,0,1-.61,3,14.82,14.82,0,0,1-1,2.75A10.26,10.26,0,0,1,70.36,55Z" fill="#1ba9df"/><path d="M30.25,54.72c-.1.24-.31.2-.51.21a12.63,12.63,0,0,1-.57-1.17,10.49,10.49,0,0,1-1-2.76,21.38,21.38,0,0,1-.79-4.28.92.92,0,0,1,.06-.43,1.46,1.46,0,0,1,.77-.37c.23.07.23.29.27.47a17.73,17.73,0,0,0,1.57,4,1.13,1.13,0,0,1,.25.77c-.15.31-.34.31-.57.09A12.64,12.64,0,0,1,28.59,49c0-.1-.05-.21-.18-.28a6.32,6.32,0,0,0,.22,1.15,22.24,22.24,0,0,0,1.58,4.68A.65.65,0,0,1,30.25,54.72Z" fill="#1ba5e2"/><path d="M70,50.82a.43.43,0,0,0,.32.51.13.13,0,0,1,0,.09c-.78,1.21-1.27,2.56-2,3.78a23.46,23.46,0,0,1-2.67,3.52,14.44,14.44,0,0,1-1.82,1.68.8.8,0,0,1-.61-.19c.1-.41.46-.61.74-.84a20.95,20.95,0,0,0,4.78-6.56,16.28,16.28,0,0,1,1-1.81C69.84,50.91,69.9,50.8,70,50.82Z" fill="#1d91dc"/><path d="M29.73,51.23a.42.42,0,0,0,.55-.11c.22,0,.27.2.37.34a21.45,21.45,0,0,1,1.23,2.26,19.36,19.36,0,0,0,3.21,4.56c.47.51.93,1,1.4,1.55-.15.25-.4.14-.61.18l-.08-.07a2,2,0,0,0-.38-.33,3.56,3.56,0,0,1-.76-.74A20.73,20.73,0,0,1,30.71,53,8.07,8.07,0,0,0,30,51.7,1.42,1.42,0,0,1,29.73,51.23Z" fill="#1b88dc"/><path d="M35.42,59.61a.41.41,0,0,1,.38.33A.82.82,0,0,1,35.42,59.61Z" fill="#186ee2"/><path d="M73.94,46.81a5,5,0,0,0,.5,1.25c.09.25.19,0,.28-.06A21.77,21.77,0,0,1,74,50.89c0,.08-.05.15-.07.23a5.7,5.7,0,0,1-.87,2.24c-.48.93-.93,1.87-1.46,2.76l-.2.27c-.31,0-.4-.15-.4-.42.36-.65.73-1.29,1.06-2A23.32,23.32,0,0,0,74,48.68c.1-.13-.06-.31.08-.43-.08.06-.09.18-.19.23h0c-.17.27-.36.41-.63.1A2.93,2.93,0,0,1,73.94,46.81Z" fill="#199adb"/><path d="M73.25,48.59c.24.16.42,0,.6-.1a11.18,11.18,0,0,1-.93,2.13,32.78,32.78,0,0,1-1.7,2.84c0,.08-.1.17-.2.19a2.74,2.74,0,0,1,0-.28c.27-.82.55-1.63.83-2.44a10.81,10.81,0,0,0,.9-1.72C72.91,49,72.92,48.66,73.25,48.59Z" fill="#1376ad"/><path d="M73.85,48.48a1,1,0,0,1,.25-.56,1.1,1.1,0,0,1-.14.76C73.94,48.61,73.94,48.52,73.85,48.48Z" fill="#1376ad"/><path d="M23.89,48.4c.38.12.38.12.51-.21.33.07.35.38.45.62a18.66,18.66,0,0,0,1.4,2.41c.24.56.41,1.14.67,1.7a1.63,1.63,0,0,1,.21.53,3.62,3.62,0,0,1-.9-1.05A23.23,23.23,0,0,1,24,48.63Z" fill="#136ea6"/><path d="M73.07,53.36a5.14,5.14,0,0,1,.35-1,5.7,5.7,0,0,0,.37-1,.37.37,0,0,1,.15-.24c.14.09.16,0,.21-.11.48-.67.86-1.41,1.27-2.12a2.45,2.45,0,0,1,.38.47,20.15,20.15,0,0,1-2.08,3.3C73.52,52.91,73.38,53.22,73.07,53.36Z" fill="#126da4"/><path d="M75.8,49.36c-.29,0-.33-.25-.38-.47a20.4,20.4,0,0,0,1.3-3.55s0-.05.06-.08a14,14,0,0,1-.21,2.82.42.42,0,0,1-.08.12s0-.19-.09-.05C76.19,48.55,76,49,75.8,49.36Z" fill="#128cc3"/><path d="M28.29,51s.08.07.08.11a11,11,0,0,0,.77,2.38.93.93,0,0,1,0,.24,17.26,17.26,0,0,1-1.63-2.58,16.43,16.43,0,0,1-1.22-2.58,1.45,1.45,0,0,1,.41-.33c.28,0,.31.3.39.49.32.73.71,1.42,1,2.13A.25.25,0,0,0,28.29,51Z" fill="#1373ad"/><path d="M26.75,48.28c0,.26-.21.31-.43.32s-.09-.11-.09-.19-.1-.23-.26-.1a.41.41,0,0,1,0-.6c.13-.16.22-.34.36-.5A1,1,0,0,1,26.75,48.28Z" fill="#198bde"/><path d="M26,48.29s0-.1,0-.14a.35.35,0,0,1,.05-.08.36.36,0,0,1,.13.34c-.07,0-.06.11-.08.17h-.1A.22.22,0,0,1,26,48.29Z" fill="#1373ad"/><path d="M26.25,49.07c-.14-.11-.1-.26-.09-.4A.52.52,0,0,1,26.25,49.07Z" fill="#1373ad"/><path d="M26.25,51.22c-.15.08-.17-.06-.21-.12a13.78,13.78,0,0,1-1.34-2.36,1.41,1.41,0,0,0-.3-.55,15.63,15.63,0,0,1-1.15-3.75,5,5,0,0,1,.1-1.89c.17-.66.35-1.31.55-2,.09-.08,0-.22.1-.3h0a12.65,12.65,0,0,1,1.93-4c.06-.1.14-.22.31-.16,0,0,0,0,0,0v0a22.14,22.14,0,0,0-.79,3.11,29.17,29.17,0,0,0,.12,8.75c0,.13,0,.26,0,.4a.19.19,0,0,1-.05.14,13,13,0,0,0,.5,2C26.12,50.82,26.18,51,26.25,51.22Z" fill="#041d48"/><path d="M25.47,48.2a14.12,14.12,0,0,1-.38-2.5,25.4,25.4,0,0,1,.29-6.22.71.71,0,0,1,.08-.18c0,.13-.05.31.12.38s.33-.17.49-.28c.14-.28.11-.63.36-.87,0,0,0-.06,0-.08.5-.1.46.27.5.57-.19.74-.47,1.46-.73,2.17a7.67,7.67,0,0,0,.06,5.38c.08.2.21.42.06.65s0,.38-.2.5-.25.35-.11.57a2.83,2.83,0,0,1,0,.29c-.16.26-.2.26-.49,0a.08.08,0,0,1,0-.08C25.49,48.42,25.55,48.29,25.47,48.2Z" fill="#1ab0dc"/><path d="M77.84,36.22c.12-.26.3-.24.51-.12a1.15,1.15,0,0,0,.11.31,13.4,13.4,0,0,1,1.34,4.45A18.14,18.14,0,0,1,79.9,46c0,.18-.07.35-.1.53-.42.27-.57.22-.63-.25s0-1,0-1.5a6.4,6.4,0,0,0,0-2.14A6.53,6.53,0,0,0,79,41a10.83,10.83,0,0,1-.1-1.39,19.91,19.91,0,0,0-1-3A.92.92,0,0,1,77.84,36.22Z" fill="#1cb5e0"/><path d="M80.79,38.78A2.37,2.37,0,0,1,81.71,40a13,13,0,0,1,.47,5A20.5,20.5,0,0,1,81.86,47a3.6,3.6,0,0,1-1,1.61,17.7,17.7,0,0,0,.83-5A17,17,0,0,0,80.79,38.78Z" fill="#199ed6"/><path d="M79.31,44.77a6.1,6.1,0,0,1-.06,1.28c-.13.49,0,.62.55.49A6.1,6.1,0,0,1,79.51,48a16.77,16.77,0,0,1-1,3.17l-.34.63c-.21.13-.35.08-.38-.18,0-.07,0-.15,0-.22a.93.93,0,0,1,.05-.24,15.43,15.43,0,0,0,1.15-3.35,2.75,2.75,0,0,0,.15-1.5c0-.19,0-.37-.07-.56s-.06-.27,0-.4a1,1,0,0,0,.09-.33C79.14,44.91,79.14,44.77,79.31,44.77Z" fill="#1798d7"/><path d="M83.7,45a14.79,14.79,0,0,0-.1-2.75A1.76,1.76,0,0,1,83.7,45Z" fill="#1782bc"/><path d="M74.25,36.49a1,1,0,0,1,.37-.39,2.67,2.67,0,0,1,.4.55c.4.74.84,1.45,1.17,2.23.06.16.1.36.29.44s.23.4-.08.56a.19.19,0,0,0,0,.33,1.67,1.67,0,0,1,.41,1.33c0,.24,0,.48,0,.72-.24-.68-.41-1.38-.67-2.06a15.79,15.79,0,0,0-1.67-3.37C74.36,36.72,74.31,36.6,74.25,36.49Z" fill="#1b94b9"/><path d="M72.68,46.05c-.09,0-.13.24-.26.06s-.31-.16-.41.07c0,0,0,.1-.08,0s0-.06,0-.09-.09-.3-.07-.46a12.78,12.78,0,0,0-1.71-8.55c-.9-1.6-1.72-3.25-2.63-4.83a.62.62,0,0,1-.11-.37.57.57,0,0,1,.54-.24,11.24,11.24,0,0,1,1.13,1.92,19.94,19.94,0,0,0,1.21,2.23,13.08,13.08,0,0,1,1.21,2.39.76.76,0,0,0,.22.35,2.62,2.62,0,0,0-.13-.9,25.85,25.85,0,0,0-1-3.45.53.53,0,0,1-.07-.28,2.47,2.47,0,0,1,.29-.1.22.22,0,0,0,.2-.21l.09.11a15.46,15.46,0,0,1,1,2.71,25.89,25.89,0,0,1,.82,5.18c.06,1.08.09,2.16.08,3.25A1.89,1.89,0,0,1,72.68,46.05Z" fill="#26c3de"/><path d="M71.89,36.39c-.27-.88-.63-1.74-.86-2.64a7.4,7.4,0,0,1,1,1.52c.42.71.8,1.45,1.19,2.18a.41.41,0,0,1,.1.32c-.18.08-.37.15-.39.39-.24,0-.27-.25-.36-.41C72.34,37.31,72.19,36.82,71.89,36.39Z" fill="#1785a9"/><path d="M78.94,39.61c.15.13.12.33.13.5a15.36,15.36,0,0,1,.23,2.53c-.23,0-.23-.24-.28-.4a12.08,12.08,0,0,0-2.15-4.09l-.39-1.36a10.53,10.53,0,0,1,2.08,2.57,1.92,1.92,0,0,0,.33.49Z" fill="#137ba3"/><path d="M76.87,38.15c.16-.1.2.06.25.13a11.7,11.7,0,0,1,2,4.06c0,.1,0,.23.13.3a5.45,5.45,0,0,1,0,2.13.45.45,0,0,0-.1.3c-.08.08,0,.21-.08.3a.52.52,0,0,0-.11.38,2,2,0,0,0-.26.62,11.07,11.07,0,0,1-1.66,2.79c0,.07-.09.2-.22.11a22,22,0,0,0,.65-7,15.55,15.55,0,0,0-.62-3.83A1.32,1.32,0,0,1,76.87,38.15Z" fill="#041e4b"/><path d="M71.89,36.39c.13-.11.16,0,.2.1.22.41.42.84.63,1.25a1.24,1.24,0,0,0,.24.42,19.06,19.06,0,0,1,1.13,3.09c.15.62.3,1.23.41,1.85a5.66,5.66,0,0,1-.2,2.35l-.36,1.36a14.24,14.24,0,0,0-.69,1.78c-.35.51-.51,1.13-.83,1.67A8,8,0,0,1,72,51c-.07.09-.06-.06-.09-.08a31.16,31.16,0,0,0,.77-4.4c0-.16,0-.32,0-.48a30.88,30.88,0,0,0-.07-5.44A31.8,31.8,0,0,0,71.89,36.39Z" fill="#071f4f"/><path d="M43.8,22.75a16,16,0,0,1,3.13-.68,19.71,19.71,0,0,1,4.13-.22,20.69,20.69,0,0,1,7.36,1.65l.22.11c.8.46,1.64.83,2.41,1.34.15.09.36.17.32.38s-.27.25-.47.23c-.86-.34-1.63-.86-2.48-1.24a20.88,20.88,0,0,0-6.68-1.66,21.92,21.92,0,0,0-7.81.82c-.72.2-1.39.55-2.12.72-.25,0-.62.27-.73-.06s.33-.4.56-.52C42.34,23.26,43.1,23.09,43.8,22.75Z" fill="#34f4df"/><path d="M28.57,38.63A3.47,3.47,0,0,1,29,37.51c.43-.88.92-1.72,1.41-2.56.39-.68.73-1.4,1.11-2.1a21.94,21.94,0,0,1,2.82-4,1.67,1.67,0,0,1,.38-.37.51.51,0,0,1,.47.3.54.54,0,0,1-.21.47,22.2,22.2,0,0,0-3.44,5.12c-.7,1.39-1.52,2.72-2.24,4.1C29.05,38.48,28.82,38.6,28.57,38.63Z" fill="#31cbd4"/><path d="M28.57,38.63c.17-.22.37-.36.66-.19.1.26,0,.48-.12.7a14.06,14.06,0,0,0-1,5.56,1.25,1.25,0,0,0,0,.43,1.55,1.55,0,0,1,0,.21,2.73,2.73,0,0,0,.05.4.25.25,0,0,1-.05.19c-.15.28-.44.27-.7.31a.34.34,0,0,1-.12-.22,5.31,5.31,0,0,0-.09-1.19,26.25,26.25,0,0,1,.34-6.13.69.69,0,0,1,.12-.31c0-.07.13,0,.18-.13.15-.3.35-.28.54,0,0,.19-.09.36-.06.56C28.51,38.78,28.47,38.64,28.57,38.63Z" fill="#1fbde1"/><path d="M61,25.47a.65.65,0,0,0,.2,0c.17,0,.21-.13.08-.27a2.81,2.81,0,0,0-.68-.46l-1.67-.89a.4.4,0,0,1-.24-.22,3.32,3.32,0,0,1,.8.34,21.27,21.27,0,0,1,8,7c.16.22.29.47.43.7a1.07,1.07,0,0,1-.5.22c-.24,0-.29-.19-.39-.32a20.41,20.41,0,0,0-5.76-5.73C61.13,25.77,61,25.7,61,25.47Z" fill="#3de2d9"/><path d="M28.48,38.24c-.24-.09-.24-.09-.59.08a.31.31,0,0,1-.06-.28,1.34,1.34,0,0,0,0-.35,5.25,5.25,0,0,1,.32-1.41,11.23,11.23,0,0,1,1-2.63c.47-1,.89-1.94,1.44-2.85a4.39,4.39,0,0,1,.51-.76c.21,0,.44-.2.58.1a28.82,28.82,0,0,0-1.59,3,22.1,22.1,0,0,0-1.42,4.25C28.62,37.68,28.55,38,28.48,38.24Z" fill="#2fceda"/><path d="M35.14,28.82c-.08-.19-.33-.18-.42-.35a19,19,0,0,1,3.83-3.27,21.14,21.14,0,0,1,4.88-2.36c.12,0,.25-.06.37-.09a.78.78,0,0,1-.49.29c-.6.18-1.17.45-1.76.69a1.2,1.2,0,0,0-.24.15c-.1.06-.25.11-.17.25s.2.06.31,0a.61.61,0,0,1,.33,0c-.05.27-.31.31-.5.4a21.13,21.13,0,0,0-4,2.54c-.58.46-1.07,1-1.66,1.5C35.44,28.65,35.34,28.82,35.14,28.82Z" fill="#3de4d6"/><path d="M29.16,33.65a5.87,5.87,0,0,1-.38,1.14L28.3,36.3c-.42.73-.78,1.5-1.13,2.27-.07.17-.06.43-.34.45,0-.28,0-.53-.38-.57A30.21,30.21,0,0,1,29,33.82C29,33.76,29.11,33.71,29.16,33.65Z" fill="#1787ac"/><path d="M26.43,38.53a2.55,2.55,0,0,1-.36.87,3.61,3.61,0,0,1,.26-1.17C26.36,38.33,26.31,38.46,26.43,38.53Z" fill="#0e537b"/><path d="M26.34,38.15a.45.45,0,0,1,.1-.4C26.44,37.89,26.48,38,26.34,38.15Z" fill="#0e537b"/><path d="M26.24,36.19c-.14-.07-.16.07-.2.14a17.07,17.07,0,0,0-1.86,3.57c-.06.13-.06.29-.18.39a.37.37,0,0,0-.34-.44c-.14,0-.17-.1-.13-.19s0-.45.17-.64l.05.28a3.08,3.08,0,0,0,.16-.29,16.51,16.51,0,0,1,1.54-2.87,19.24,19.24,0,0,1,1.42-2,.59.59,0,0,1,.25-.22,9.85,9.85,0,0,1-.56,1.39A4.13,4.13,0,0,1,26.24,36.19Z" fill="#1788ae"/><path d="M21.48,36.78c.37-.14.41-.12.48.31-.23.81-.47,1.62-.71,2.42,0,1.05-.31,2.07-.23,3.13a6.5,6.5,0,0,0,0,2.2v.34a2.65,2.65,0,0,1-.09,1c-.1.24-.24.43-.54.36a8.43,8.43,0,0,1-.26-2.12A19.47,19.47,0,0,1,21.38,37,.75.75,0,0,1,21.48,36.78Z" fill="#1bacde"/><path d="M20.88,42.64a13.64,13.64,0,0,1,.28-2.92.33.33,0,0,1,.09-.21c0,.05,0,.14.1.13s.07-.06.09-.1A13.56,13.56,0,0,1,23.36,37a.88.88,0,0,1,.35-.31c0,.34-.23.63-.21,1-.14.1,0,.3-.17.39a15.63,15.63,0,0,0-1.7,2.76c-.18.47-.34.94-.48,1.43C21.1,42.39,21.13,42.62,20.88,42.64Z" fill="#147da9"/><path d="M20.38,46.55a.68.68,0,0,0,.5-.81,5.42,5.42,0,0,1,0-.57.11.11,0,0,1,.12,0,.24.24,0,0,1,.06.11,2.63,2.63,0,0,0,.09.3.52.52,0,0,1,0,.37.73.73,0,0,0-.19.71,3.47,3.47,0,0,0,.18,1,10.56,10.56,0,0,0,.58,2c.2.62.45,1.21.69,1.82,0,.09,0,.19,0,.29.05.32.06.32-.32.4a11.89,11.89,0,0,1-1-2.27,21.4,21.4,0,0,1-.73-2.72A2.21,2.21,0,0,1,20.38,46.55Z" fill="#1890d9"/><path d="M21.18,45.94c-.11-.1-.09-.25-.11-.38s0-.21-.09-.3a.14.14,0,0,0,0-.09c-.08-.08,0-.21-.08-.3a4.67,4.67,0,0,1,0-2.23,1.19,1.19,0,0,0,.18-.55,10.32,10.32,0,0,1,2.15-4s.07,0,.12,0l0,.18c-.08.09,0,.22-.08.31a18.31,18.31,0,0,0-.59,3.54,22.71,22.71,0,0,0,.47,6.42l.12.47-.05.28a9.09,9.09,0,0,1-1.09-1.44C21.71,47.22,21.5,46.55,21.18,45.94Z" fill="#041d48"/><path d="M24,40.29a.31.31,0,0,1-.1.3A.29.29,0,0,1,24,40.29Z" fill="#1788ae"/><path d="M23.23,38.54a.33.33,0,0,1,.08-.31A.29.29,0,0,1,23.23,38.54Z" fill="#147da9"/><path d="M19.44,38.61a17.84,17.84,0,0,0-.94,5,17.82,17.82,0,0,0,.8,4.91,2.39,2.39,0,0,1-.94-1.34,14.22,14.22,0,0,1-.05-6.8A4.05,4.05,0,0,1,19.44,38.61Z" fill="#1b95d5"/><path d="M16.5,42.28a17,17,0,0,0,0,2.76A1.75,1.75,0,0,1,16.5,42.28Z" fill="#167ab9"/><path d="M36.49,59.83a2,2,0,0,1-.7-.6c-.63-.74-1.32-1.42-1.92-2.18a21.3,21.3,0,0,1-2-3,2,2,0,0,1-.09-.22c0-.28,0-.53.36-.58.4.2.61.63,1,.87C35.08,55.22,37,56.32,39,57.44c1.16.68,2.32,1.37,3.51,2,2.06,1.26,4.17,2.43,6.26,3.66a2.55,2.55,0,0,0,2.76,0l6.1-3.53c2.14-1.21,4.23-2.47,6.36-3.68a1.85,1.85,0,0,1,.58-.25,3.6,3.6,0,0,0,1.56-.51c.31-.12.67-.36.94,0s0,.65-.11,1-.47.54-.58.89a.7.7,0,0,1-.2.33,25.77,25.77,0,0,1-2.93,3,23.22,23.22,0,0,1-3.76,2.43,20.36,20.36,0,0,1-5.32,1.85A20.16,20.16,0,0,1,44.08,64a21,21,0,0,1-7-3.68Z" fill="#051e4d"/><path d="M66.35,56.9a.49.49,0,0,1,.2-.5A1.7,1.7,0,0,0,67,55.28.2.2,0,0,0,66.8,55a.68.68,0,0,0-.42.08,7.52,7.52,0,0,0-1,.48c-.27.2-.6.1-.9.12,0-.26.21-.3.37-.4.61-.37,1.23-.71,1.85-1.07a2.51,2.51,0,0,0,1.36-2.39c0-2.12,0-4.25,0-6.37s0-4.47,0-6.71V36.68a2.25,2.25,0,0,0-1.21-2.12c-.63-.35-1.22-.75-1.87-1.06-1.41-.83-2.85-1.63-4.24-2.49C59,29.94,57.23,29,55.48,27.93c-1.29-.76-2.61-1.46-3.87-2.27a2.6,2.6,0,0,0-3,0C45,27.79,41.34,29.88,37.72,32c-1.12.65-2.23,1.34-3.38,1.95l-.3.19a5.19,5.19,0,0,0-.95.59,2.39,2.39,0,0,0-1,2.07c0,3.35,0,6.69,0,10a4.29,4.29,0,0,1,0,.88,2.64,2.64,0,0,0-.06,1.15,21.8,21.8,0,0,1,.09,3.33c0,.37.21.72,0,1.09-.33,0-.26.34-.4.51a3.88,3.88,0,0,1-.42-.81,10.7,10.7,0,0,0-1.09-1.85c-.37-.79-.82-1.54-1.14-2.35a16.62,16.62,0,0,1-.86-2.67,1.22,1.22,0,0,0-.07-.17l0-.18c-.09-.12,0-.28-.09-.4v-.18c-.08-.13,0-.29-.08-.41A13.79,13.79,0,0,1,29,39c.07-.19.05-.42.21-.57,1-2.07,2.16-4,3.25-6a18.56,18.56,0,0,1,2.29-3.14,1.78,1.78,0,0,0,.37-.45c.79-.73,1.55-1.51,2.41-2.17a20.94,20.94,0,0,1,3.9-2.35,1.09,1.09,0,0,0,.33-.19,22.37,22.37,0,0,1,4.95-1.4,21.35,21.35,0,0,1,5.92-.1,19.69,19.69,0,0,1,6.63,2c.57.28,1.12.59,1.67.89s1.19.85,1.77,1.29a20.24,20.24,0,0,1,4.58,5c0,.05,0,.12.12.14.94,1.53,1.63,3.2,2.59,4.73a13.08,13.08,0,0,1,1.27,2.67,13.62,13.62,0,0,1,.87,4.42,9.26,9.26,0,0,1-.2,2c0,.12,0,.25,0,.38a27.9,27.9,0,0,1-1,2.79c-.27.64-.59,1.26-.89,1.89a17.57,17.57,0,0,0-1.31,2.31,18.7,18.7,0,0,1-2.21,3.6A.69.69,0,0,1,66.35,56.9Z" fill="#072253"/><path d="M26.83,39c.39-.81.78-1.62,1.16-2.43a2.32,2.32,0,0,1,.21-.38c.09-.09.07.06.1.09A7.86,7.86,0,0,0,28,37.74c-.07.09,0,.21-.07.3l0,.28a11.28,11.28,0,0,0-.33,2,29,29,0,0,0-.13,4.56c.1.39,0,.8.07,1.19v.17a17.3,17.3,0,0,0,.31,2.7A18.57,18.57,0,0,0,28.29,51s0,.17-.1.1a1.08,1.08,0,0,1-.2-.33c-.36-.74-.77-1.46-1.07-2.23a2,2,0,0,0-.17-.29,6.46,6.46,0,0,0-.41-1.06c-.2-.7-.42-1.4-.59-2.11a5.93,5.93,0,0,1,.05-2.84A28.51,28.51,0,0,1,26.83,39Z" fill="#051e4b"/><path d="M25.47,48.2c.11.08.09.2.08.31A.35.35,0,0,1,25.47,48.2Z" fill="#198bde"/><path d="M79.13,45.37a.33.33,0,0,1,.08-.3A.28.28,0,0,1,79.13,45.37Z" fill="#1275ab"/><path d="M27.5,46.07a3.4,3.4,0,0,1-.07-1.19A3.18,3.18,0,0,1,27.5,46.07Z" fill="#1ba5e2"/><path d="M28.1,45.35a.52.52,0,0,1,.09.4C28.05,45.64,28.1,45.49,28.1,45.35Z" fill="#1ba5e2"/><path d="M28,44.76a.53.53,0,0,1,.08.41C28,45.05,28,44.9,28,44.76Z" fill="#1ba5e2"/><path d="M27.92,38a.36.36,0,0,1,.07-.3C28,37.85,28,38,27.92,38Z" fill="#1fbde1"/><path d="M20.89,44.87a.33.33,0,0,1,.08.3h-.09Z" fill="#1270ad"/><path d="M21,45.26a.31.31,0,0,1,.09.3C21,45.48,21,45.37,21,45.26Z" fill="#1270ad"/><path d="M32.19,53.27A3.51,3.51,0,0,1,32,51.8c0-1.2,0-2.39,0-3.59a.94.94,0,0,1,.06-.52,1,1,0,0,1,.06.92,4,4,0,0,0,.3-2c0-.25-.08-.53.18-.72.28.16.18.43.18.66,0,1.76,0,3.53,0,5.3a1.94,1.94,0,0,0,1.09,1.85c2.91,1.64,5.8,3.32,8.68,5,.17.1.36.17.42.39s-.14.49-.49.4c-.84-.39-1.61-.9-2.41-1.36-2-1.16-4.07-2.34-6.1-3.51l-.55-.32A3.22,3.22,0,0,1,32.19,53.27Z" fill="#1d92e1"/><path d="M68.18,45.57c0,.61,0,1.23,0,1.85,0,1.51,0,3,0,4.52a2.53,2.53,0,0,1-1.41,2.42l-2.07,1.18a.59.59,0,0,0-.24.17c-.68.33-1.32.75-2,1.13-1.42.81-2.84,1.64-4.25,2.46l-.61.31c-.35.09-.53,0-.54-.41.07-.2.26-.27.43-.37,2.94-1.71,5.88-3.45,8.86-5.11a1.76,1.76,0,0,0,1-1.66c0-2.66,0-5.32,0-8,0-2.45,0-4.91,0-7.37a.69.69,0,0,1,.14-.5c.27,0,.23.23.25.39a6.32,6.32,0,0,1,0,.87c0,2.69,0,5.38,0,8.06,0,2.12,0,4.24.06,6.36.16-.16.12-.35.12-.53,0-1.71,0-3.41,0-5.11C68,46,67.86,45.71,68.18,45.57Z" fill="#1f95e0"/><path d="M57.17,59.23c0,.28.26.33.48.38-.81.55-1.67,1-2.51,1.49-1.2.71-2.43,1.38-3.63,2.09a2.51,2.51,0,0,1-2.72.08l-5.14-3a8.23,8.23,0,0,1-1.24-.76.45.45,0,0,0,.42-.4c.27-.1.47.09.67.2,1.85,1.08,3.71,2.15,5.56,3.25a1.83,1.83,0,0,0,2,0c1.83-1.1,3.68-2.15,5.53-3.2C56.8,59.27,57,59.12,57.17,59.23Z" fill="#1b78df"/><path d="M64,57.72A18.84,18.84,0,0,1,54.92,63l-.05-.09,1.23-.75a10.45,10.45,0,0,1,1.3-.64A20.55,20.55,0,0,0,61.72,59,15,15,0,0,1,64,57.72Z" fill="#1b72dd"/><path d="M45.1,62.9c-2,0-7.51-3.19-9-5.14,0,0,.06,0,.08,0a20.53,20.53,0,0,1,2.47,1.46A19.5,19.5,0,0,0,43,61.67a13,13,0,0,1,2,1.11S45.12,62.84,45.1,62.9Z" fill="#1a74de"/><path d="M34.25,33.88l4.2-2.46c3.45-2,6.91-4,10.35-6a2.29,2.29,0,0,1,2.52,0c2.63,1.55,5.27,3.07,7.9,4.62,1.23.72,2.43,1.48,3.66,2.19.7.39,1.41.78,2.09,1.21a.85.85,0,0,1-1-.09,1.65,1.65,0,0,0-1.16-.49,3.21,3.21,0,0,1-1.13-.55Q56.29,29.15,51,26A1.53,1.53,0,0,0,49.26,26c-4.47,2.61-8.93,5.24-13.42,7.82l-.21.13a.91.91,0,0,1-.42.14C34.9,34,34.53,34.14,34.25,33.88Z" fill="#43ece0"/><path d="M34.25,33.88a2.76,2.76,0,0,1,1,.09c0,.22-.22.31-.38.41-.34.22-.68.44-1,.63a2,2,0,0,0-1.09,1.92q0,4.09,0,8.19c0,.28.08.59-.16.83a.41.41,0,0,0-.08.32c0,.22,0,.45,0,.68a2.4,2.4,0,0,1-.5,1.86V47.69c0-1.95,0-3.89,0-5.84V36.54a2.24,2.24,0,0,1,1.06-2,.34.34,0,0,1,.14,0A1.39,1.39,0,0,0,34,34,.34.34,0,0,1,34.25,33.88Z" fill="#30c6e0"/><path d="M62.71,32.7a1.28,1.28,0,0,1,1.22.42.74.74,0,0,0,.64.24c.13,0,.26.17.4,0s0,0,0,0a16.47,16.47,0,0,1,2.36,1.4,2.08,2.08,0,0,1,.8,1.65c0,.74,0,1.48,0,2.23-.06,1.25,0,2.51,0,3.77,0,.79,0,1.59,0,2.38,0,.36-.1.67-.52.75q0-4.39,0-8.78c0-.19.06-.39-.08-.57-.35-.32-.47-.85-.94-1.09-.3-.15-.59-.34-.88-.51-.89-.51-1.77-1-2.66-1.53C62.89,33,62.71,32.92,62.71,32.7Z" fill="#37d1de"/><path d="M69.67,38.34a17.43,17.43,0,0,1,0,10.69c-.14-.12-.09-.23-.1-.33a14.7,14.7,0,0,1,.21-3,12.94,12.94,0,0,0,0-3.78,16.11,16.11,0,0,1-.23-3.25A.57.57,0,0,1,69.67,38.34Z" fill="#24bade"/><path d="M30.51,49a16.43,16.43,0,0,1,0-10.44c0,.24,0,.47.06.71a6,6,0,0,1,0,.73c-.05.57-.11,1.13-.2,1.7a15.43,15.43,0,0,0,.09,4.89A10.22,10.22,0,0,1,30.51,49Z" fill="#21b2dd"/><path d="M59.61,26.83a19,19,0,0,0-3.92-1.7,14.28,14.28,0,0,0-2.41-.56,3.64,3.64,0,0,1-1.56-.74,17.25,17.25,0,0,1,8.47,2.72C60.13,26.93,59.9,26.92,59.61,26.83Z" fill="#36e9da"/><path d="M40.4,26.26a18.19,18.19,0,0,1,5.21-2.07,11.43,11.43,0,0,1,2.8-.35,3.44,3.44,0,0,1-1.55.74,17,17,0,0,0-3.51.93,21.33,21.33,0,0,0-2.48,1.12C40.6,26.65,40.41,26.57,40.4,26.26Z" fill="#36e6d8"/><path d="M67.62,45.55a1.54,1.54,0,0,0,.49-1.34c0-1.68,0-3.37,0-5.05,0-.17-.06-.36.07-.52,0,.59,0,1.17,0,1.76,0,1.72,0,3.45,0,5.17-.14.15-.08.34-.08.51v5.56c0,.11,0,.23,0,.34s0,.27-.12.26-.34,0-.35-.26c0,0,0-.09,0-.14C67.62,49.74,67.62,47.65,67.62,45.55Z" fill="#26b0e4"/><path d="M37.06,30.11c1-.69,2.08-1.25,3.13-1.87a19.36,19.36,0,0,1,3.58-1.65c.07,0,.14-.07.24,0s-.08.12-.13.15c-2.08,1.3-4.21,2.52-6.32,3.77a1,1,0,0,1-.18.07C37.09,30.54,37,30.4,37.06,30.11Z" fill="#26bbc9"/><path d="M62.73,29.87l1.4.79c-.24-.46-.62-.66-.83-1,.07-.19.24-.27.4-.37a3.1,3.1,0,0,1,.74.75,12.94,12.94,0,0,1,1.79,2.37.1.1,0,0,1,0,.15,15.16,15.16,0,0,1-1.46-.83c-.78-.44-1.54-.9-2.31-1.36a1.49,1.49,0,0,1-.14-.12A1.27,1.27,0,0,1,62.73,29.87Z" fill="#1fa0b9"/><path d="M62.73,29.87a.44.44,0,0,1-.41.39c-.75-.33-1.41-.8-2.12-1.2-1.29-.74-2.57-1.52-3.85-2.29a.41.41,0,0,1-.24-.27A30.11,30.11,0,0,1,62.73,29.87Z" fill="#26bac8"/><path d="M37.06,30.11a.54.54,0,0,0,.32.44c-1.08.69-2.19,1.33-3.3,2,0,0-.11.07-.23,0a17.71,17.71,0,0,1,2.44-3,.5.5,0,0,1,.37.38c-.16.33-.51.5-.71.86C36.38,30.56,36.68,30.26,37.06,30.11Z" fill="#1ca2bd"/><path d="M36.66,29.84a1.12,1.12,0,0,1-.37-.38,17.67,17.67,0,0,1,3.19-2.66,4.72,4.72,0,0,1,.92-.54.9.9,0,0,0,.47.37l-1.57,1a15.13,15.13,0,0,0-1.92,1.55C37.15,29.43,36.9,29.63,36.66,29.84Z" fill="#2cc4cb"/><path d="M63.7,29.3c0,.25-.25.27-.4.37a23.21,23.21,0,0,0-3.69-2.84.63.63,0,0,0,.58-.28.85.85,0,0,1,.42.22A15.33,15.33,0,0,1,63.7,29.3Z" fill="#2fc7ce"/><path d="M34,34c-.15.41-.41.64-.87.52A3.86,3.86,0,0,1,34,34Z" fill="#43ece0"/><path d="M32.57,46c0-1.54,0-3.08,0-4.62s0-3,0-4.48a2,2,0,0,1,1.11-2A13.4,13.4,0,0,0,35.24,34l.33-.13c.37-.11.55.12.69.39a1.38,1.38,0,0,1,.17.8,1.12,1.12,0,0,1-.57.5,2.2,2.2,0,0,0-1.19,2.07c0,.45,0,.9,0,1.35q0,3.48,0,7c0,1.78,0,3.57,0,5.35a2.08,2.08,0,0,0,1.17,1.84c2.78,1.6,5.57,3.2,8.33,4.84L49,60.73a1.93,1.93,0,0,0,2.08.05c1.61-.93,3.21-1.85,4.8-2.8,2.43-1.39,4.86-2.76,7.26-4.19.39-.23.78-.46,1.19-.67a2.1,2.1,0,0,0,1.13-1.66,2,2,0,0,1,.19-.8,1.36,1.36,0,0,0,.38-.92,2.31,2.31,0,0,1,.17-.86,12.26,12.26,0,0,0,.7-3.75,3.71,3.71,0,0,1,.14-.81c.09-.23.23-.42.48-.12l0,6c0,.65,0,1.3,0,2a1.77,1.77,0,0,1-1,1.66l-6.87,4L57.45,59a.67.67,0,0,0-.28.19c-1.05.54-2.07,1.15-3.09,1.75S52,62.17,51,62.79a1.7,1.7,0,0,1-1.85,0c-1.22-.73-2.46-1.46-3.7-2.17-.85-.5-1.69-1-2.58-1.46s-1.75-1.05-2.64-1.56L34.88,54.5c-.42-.24-.84-.49-1.27-.72a1.81,1.81,0,0,1-1-1.74c0-1.85,0-3.7,0-5.55C32.6,46.31,32.58,46.13,32.57,46Z" fill="#072658"/><path d="M36.39,35a1.26,1.26,0,0,1-.15-.5.83.83,0,0,0-.67-.67l2.72-1.61,8.42-4.91c.8-.47,1.61-.91,2.4-1.4a1.65,1.65,0,0,1,1.91,0c2.36,1.4,4.73,2.77,7.1,4.16l4.33,2.52a.5.5,0,0,0,.26.11,5.64,5.64,0,0,0,1,.6c.91.54,1.82,1.07,2.74,1.59a2.08,2.08,0,0,1,1.08,1.31v7.41c0,.2,0,.39,0,.59-.19-.11-.36-.1-.38.16-.06.62-.2,1.24-.21,1.87,0,.34-.11.68-.1,1a2.56,2.56,0,0,1-.27,1A5.19,5.19,0,0,0,66.14,50a.79.79,0,0,1-.49.71,1.18,1.18,0,0,1-.15-.84c0-3.19,0-6.38,0-9.58,0-.92,0-1.84,0-2.77a2.45,2.45,0,0,0-1.58-2.24c-.27-.12-.5-.3-.76-.43l-4.41-2.59c-2.56-1.49-5.1-3-7.66-4.47a1.87,1.87,0,0,0-2,0c-1,.57-2,1.2-3.07,1.8-3.17,1.82-6.29,3.72-9.48,5.51A.19.19,0,0,1,36.39,35Z" fill="#092e5e"/><path d="M65.58,37.35a1.6,1.6,0,0,1,.06.72V50.2c0,.17,0,.35,0,.53s-.05.45-.07.68a2.17,2.17,0,0,1-1.2,1.82c-2,1.14-4,2.3-5.95,3.43-.83.47-1.64,1-2.5,1.4-.5.11-.59,0-.51-.44a1.54,1.54,0,0,1,.57-.44c2.59-1.48,5.16-3,7.76-4.47a2,2,0,0,0,1.1-1.89c0-3,0-6,0-9,0-.24-.16-.57.22-.69a.67.67,0,0,1,.16.54c0,1.87,0,3.74,0,5.6a.54.54,0,0,1-.15.49c.34-.15.32-.44.32-.71,0-1.06,0-2.11,0-3.17,0-1.9,0-3.8,0-5.7C65.41,37.86,65.34,37.57,65.58,37.35Z" fill="#22a2e3"/><path d="M44.19,58.05c-.59-.27-1.13-.63-1.69-.95-2.22-1.28-4.43-2.59-6.66-3.85a2.33,2.33,0,0,1-1.3-2.17c0-1.68,0-3.35,0-5,.31.09.22.36.22.57,0,.89,0,1.78,0,2.68,0,.22,0,.47.27.56s.19.32.2.51a8.77,8.77,0,0,0,0,.88,1.71,1.71,0,0,0,1,1.36q3.86,2.19,7.66,4.43a2.15,2.15,0,0,1,.84.65C44.76,58.14,44.46,58.07,44.19,58.05Z" fill="#1e98e5"/><path d="M44.19,58.05a1.14,1.14,0,0,1,.26-.09c.19,0,.24-.12.23-.28.22-.12.38,0,.53.13,1.27.75,2.57,1.48,3.82,2.26a1.79,1.79,0,0,0,2,0c1.26-.76,2.54-1.5,3.82-2.24.18-.11.35-.33.61-.19-.11.22-.08.36.19.4h.23a10.77,10.77,0,0,1-1.45.88c-1,.63-2.1,1.21-3.14,1.84a2.29,2.29,0,0,1-2.6,0c-1.42-.87-2.88-1.68-4.32-2.52Z" fill="#1e83e1"/><path d="M36.39,35h.18c.28,0,.51.1.46.46a1.71,1.71,0,0,1-.73.55,1.78,1.78,0,0,0-1,1.47c-.09,1,0,2,0,2.92,0,.7,0,1.4,0,2.1s0,1.23,0,1.84c0,.18,0,.45-.24.43a.44.44,0,0,1-.42-.45c0-.12,0-.23,0-.34V39.32a1.29,1.29,0,0,0,0-.48c0-.5,0-1,0-1.5a2.16,2.16,0,0,1,1.09-1.83A3.44,3.44,0,0,0,36.39,35Z" fill="#33d5e3"/><path d="M34.55,38.84c.14.15.08.34.08.51q0,2.28,0,4.56c0,.35,0,.64.47.8l0-2.29c.31.14.25.43.24.68,0,1.21.05,2.42-.07,3.63-.08.84,0,1.69,0,2.53a.94.94,0,0,1-.15.69c-.49.11-.49.11-.49-.41,0-1,0-2,0-3,0-.16,0-.33-.08-.46,0-1.78,0-3.56,0-5.33C34.53,40.1,34.55,39.47,34.55,38.84Z" fill="#25b7e7"/><path d="M37,35.43c0-.31-.3-.26-.4-.43.14-.2.38-.24.57-.35l9.8-5.75c.64-.37,1.29-.75,1.92-1.14a2.17,2.17,0,0,1,2.43,0C55,30,58.69,32.1,62.4,34.26a3.54,3.54,0,0,0,.81.5c.11.24-.08.2-.18.17a1.05,1.05,0,0,0-.7,0A3.54,3.54,0,0,1,61,34.34q-4.91-2.85-9.79-5.75A1.94,1.94,0,0,0,49,28.54Q44.94,31,40.86,33.33L37.32,35.4C37.21,35.45,37.1,35.51,37,35.43Z" fill="#4eefe4"/><path d="M62.34,34.93c.15-.28.38-.21.62-.13.08,0,.2.18.25,0,.42.24.85.47,1.27.72a2.14,2.14,0,0,1,1.1,1.87c0,.19,0,.39,0,.58q0,4.65,0,9.3c0,.46,0,.46-.44.58a1.25,1.25,0,0,1,0-.47c0-1.92,0-3.83,0-5.75,0-.17.05-.36-.08-.52s-.14-.33-.12-.52a.88.88,0,0,0,0-.6,2.69,2.69,0,0,1,0-.85.75.75,0,0,0,0-.49,3.23,3.23,0,0,1,0-.82,1.82,1.82,0,0,0-1-1.79c-.36-.22-.73-.43-1.1-.62a1.16,1.16,0,0,1-.43-.3A.16.16,0,0,1,62.34,34.93Z" fill="#36d2e2"/><path d="M62.36,35,64,36a1.76,1.76,0,0,1,1,1.67c0,.34,0,.68,0,1A.59.59,0,0,1,65,39v1a.84.84,0,0,1,0,.47v.59c0,.22,0,.43,0,.64q0,4.51,0,9a4,4,0,0,1,0,.78,1.83,1.83,0,0,1-1,1.2l-3.37,1.94-4.88,2.83-.2.14c-.83.42-1.6.92-2.4,1.38s-1.36.77-2,1.18a1.8,1.8,0,0,1-2.09,0c-1.3-.8-2.62-1.56-3.94-2.33a1.07,1.07,0,0,0-.39-.18c-2.8-1.72-5.67-3.33-8.52-5a1.84,1.84,0,0,1-1-1.74c0-.34,0-.68,0-1a.66.66,0,0,0,0-.14q0-3.47,0-6.91a.88.88,0,0,0-.06-.48c0-1.41,0-2.83,0-4.24,0-.26,0-.52,0-.78A1.61,1.61,0,0,1,36.06,36l.91-.55c.12,0,.2-.08.29-.12.69,0,.78.2.6,1.08-1.08.82-1.16,2-1.14,3.19.05,2.76,0,5.52,0,8.29,0,.74,0,1.49,0,2.23a1.92,1.92,0,0,0,1,1.85c1.94,1.16,3.9,2.27,5.85,3.41,1.69,1,3.43,1.93,5.09,3a2.36,2.36,0,0,0,2.73,0c2-1.23,4.07-2.36,6.11-3.55,1.42-.84,2.87-1.65,4.3-2.49a4,4,0,0,0,.83-.58,2.22,2.22,0,0,0,.8-1.85c0-3.3,0-6.59,0-9.88,0-.41,0-.81,0-1.22a2.46,2.46,0,0,0-1.07-2.21.64.64,0,0,1-.25-.29,5.31,5.31,0,0,1-.11-.8C62,35.26,62,35,62.36,35Z" fill="#093465"/><path d="M37.85,36.28c-.06-.11-.14-.24-.08-.36.15-.29,0-.41-.25-.48a1.58,1.58,0,0,1-.26-.13l3.1-1.84,6.89-4,2-1.15a1.5,1.5,0,0,1,1.65,0c1.79,1.06,3.58,2.1,5.38,3.15L62,34.76l.35.17s0,.06,0,.08a.35.35,0,0,0-.19.48,3,3,0,0,1,.08.79c-.19.1-.32,0-.47-.09-3.55-2.11-7.12-4.17-10.69-6.26a1.88,1.88,0,0,0-2.06,0c-3.52,2.06-7,4.15-10.55,6.19a1.75,1.75,0,0,1-.43.22A.21.21,0,0,1,37.85,36.28Z" fill="#0b4570"/><path d="M65,40.48A1.07,1.07,0,0,1,65,40,.39.39,0,0,1,65,40.48Z" fill="#22a2e3"/><path d="M65,39a.77.77,0,0,1,0-.37A.27.27,0,0,1,65,39Z" fill="#22a2e3"/><path d="M62.64,51.94a20.62,20.62,0,0,1-1.87,1.13c-2.39,1.39-4.8,2.77-7.21,4.16L51.21,58.6a2.14,2.14,0,0,1-2.34,0c-2.52-1.48-5-2.94-7.57-4.41l-3.58-2.08a2.08,2.08,0,0,1-1.16-2c0-.7,0-1.4,0-2.1a.73.73,0,0,1,.61-.2,1.07,1.07,0,0,1,.11.66c0,.43,0,.88,0,1.31a1.83,1.83,0,0,0,1.16,1.9c1.2.64,2.38,1.33,3.55,2,2.11,1.23,4.2,2.46,6.31,3.68a6.36,6.36,0,0,1,.83.51,1.44,1.44,0,0,0,1.8,0,2.19,2.19,0,0,1,.41-.26c1.79-1,3.57-2.06,5.35-3.1s3.38-1.94,5.07-2.91a.71.71,0,0,1,.28-.09C62.32,51.56,62.73,51.38,62.64,51.94Z" fill="#25a2e7"/><path d="M37.16,47.8a.66.66,0,0,1-.58.2c0-3.2,0-6.4,0-9.61a2.15,2.15,0,0,1,.87-1.77l.4-.34H38c.33.14.43.36.21.67a2.62,2.62,0,0,0-.94,2.28c0,2.6,0,5.2,0,7.79C37.32,47.28,37.38,47.57,37.16,47.8Z" fill="#3bd5e8"/><path d="M61.85,36.11l.4.17a1.39,1.39,0,0,0,.19.15,2.33,2.33,0,0,1,1.15,2c0,.48,0,1,0,1.46a4.77,4.77,0,0,0,0,1.07v5a1.14,1.14,0,0,1-.32.88c-.14.15-.25.11-.31-.08a1.89,1.89,0,0,1,0-.58c0-2.62,0-5.23,0-7.85a2,2,0,0,0-1.2-1.49c-.22-.13-.49-.19-.63-.43a.26.26,0,0,1,0-.15C61.28,36,61.58,36.11,61.85,36.11Z" fill="#41daea"/><path d="M63,38.15c.12.17.06.37.06.56q0,3.82,0,7.64v.51a1.52,1.52,0,0,0,.49-1.23c0-1.74,0-3.47,0-5.21,0-.17-.06-.36.08-.51,0,.13,0,.26,0,.39,0,3.24,0,6.49,0,9.74a2.65,2.65,0,0,1-.32,1.26c-.15.28-.45.4-.65.64,0-.26-.14-.39-.41-.27a.17.17,0,0,1-.18,0,.35.35,0,0,1,.16-.29,1.62,1.62,0,0,0,.57-1.47c0-2.06,0-4.12,0-6.17,0-.41,0-.81,0-1.21,0-1.21,0-2.42,0-3.63C62.78,38.62,62.72,38.34,63,38.15Z" fill="#2db5e3"/><path d="M61.85,36.11a.31.31,0,0,1-.3.08.83.83,0,0,0-.49.12c-.18.1-.32,0-.45-.09-2.19-1.25-4.39-2.46-6.53-3.79-1-.65-2.14-1.23-3.18-1.9a1.47,1.47,0,0,0-1.72,0C46.13,32.4,43,34.18,40,36c-.4.24-.81.47-1.22.7-.15.09-.29.22-.49.11.16-.27-.16-.34-.2-.53.81-.54,1.67-1,2.51-1.49,2.8-1.64,5.61-3.27,8.4-4.93a2,2,0,0,1,2.23,0L58.29,34l3.36,2Z" fill="#61f0e9"/><path d="M38.24,36.8a10.05,10.05,0,0,0,1.16-.64l.51-.26a.51.51,0,0,1,.07.89,1.37,1.37,0,0,0-.48.7.39.39,0,0,1-.08.14,2.07,2.07,0,0,0-.85,1.93,5.15,5.15,0,0,1,0,1.3c-.11,1.32,0,2.65,0,4s.16,2.89.1,4.33a1.81,1.81,0,0,0,.25,1.07,2.05,2.05,0,0,0,.84.73c3.14,1.87,6.32,3.67,9.48,5.51.12.08.34.08.31.32a1.36,1.36,0,0,1-.67.19c-.31,0-.47.18-.51.48-.9-.42-1.72-1-2.58-1.47-2.44-1.41-4.86-2.87-7.33-4.23a4.19,4.19,0,0,1-.5-.31,1.58,1.58,0,0,1-.7-1.37c0-.76,0-1.53,0-2.29,0-3,0-6.07,0-9.11a2,2,0,0,1,.88-1.75C38.12,36.9,38.18,36.84,38.24,36.8Z" fill="#0c4c7b"/><path d="M62.92,43.71c0,2.18,0,4.35,0,6.52a1.29,1.29,0,0,1-.62,1.19,1.86,1.86,0,0,0-.27.22c-1,.57-2,1.13-3,1.72l-7.41,4.3-.18.08a1.93,1.93,0,0,0-.71-1c0-.2.19-.25.32-.32,3.21-1.84,6.4-3.69,9.6-5.54a2.27,2.27,0,0,0,.57-.45,2.48,2.48,0,0,0,.49-1,6.07,6.07,0,0,1,.73-3.17,4.16,4.16,0,0,0,.28-2C62.69,44.11,62.6,43.83,62.92,43.71Z" fill="#0c4b7a"/><path d="M50.72,56.77a1.4,1.4,0,0,0,.17.09.69.69,0,0,1,.52.88c-.26.12-.46.32-.73.45a1.29,1.29,0,0,1-1.29,0c-.37-.22-.73-.46-1.1-.69,0-.15-.11-.27-.12-.46a6.93,6.93,0,0,1,1.3-.23A2.64,2.64,0,0,1,50.72,56.77Z" fill="#093766"/><path d="M39.42,37.48a.76.76,0,0,1,.32-.67c.45-.34.45-.34.17-.91,1-.64,2-1.2,3-1.79l6.2-3.66a3,3,0,0,1,.56-.29,1.11,1.11,0,0,1,.94.07c1.11.66,2.25,1.28,3.34,2,.57.38,1.17.7,1.76,1.05l5.17,3a1,1,0,0,0,.18.08s0,0,0,.08A1.67,1.67,0,0,1,61,37.55a.23.23,0,0,1-.14.07A2.54,2.54,0,0,1,59.75,37a1.51,1.51,0,0,0-.8-.88,3.3,3.3,0,0,1-1-.73,10.86,10.86,0,0,0-3.45-2.22c-1-.48-2-.8-3-1.19a1.65,1.65,0,0,0-.38,0,2.49,2.49,0,0,0-2.59.35C45.69,34,42.81,35.65,40,37.35,39.79,37.45,39.64,37.59,39.42,37.48Z" fill="#0d5b82"/><path d="M60.87,37.57a1.18,1.18,0,0,0,.11-.64c0-.18-.07-.39.09-.54.31.16.63.32.93.49a1.83,1.83,0,0,1,1,1.27l0,3.85c0,.17,0,.35,0,.53-.22,0-.19-.19-.22-.32a5.92,5.92,0,0,1-.27-1.38,2.17,2.17,0,0,0-.69-1.46,3.34,3.34,0,0,0-.84-1.61A.21.21,0,0,1,60.87,37.57Z" fill="#0d4a75"/><path d="M61.77,39.32a1.53,1.53,0,0,1,.77,1.29,10.52,10.52,0,0,0,.38,1.92v1.18c-.17.2-.1.44-.08.65a5.33,5.33,0,0,1-.38,2.27,2.66,2.66,0,0,1-.3.61,1.57,1.57,0,0,0-.31,1.09,8.42,8.42,0,0,1,0,.87c0,.13,0,.26-.09.36-.22-.23-.16-.51-.16-.78,0-2.11,0-4.22,0-6.33,0-.87,0-1.73,0-2.6A.62.62,0,0,1,61.77,39.32Z" fill="#0d5b86"/><path d="M50.72,56.77a2.31,2.31,0,0,1-1.25,0L42.21,52.6l-2.64-1.55a1.86,1.86,0,0,1-.75-.61,1.32,1.32,0,0,1,.51-.33,23.37,23.37,0,0,1,2.08,1.15c1.92,1.12,3.84,2.22,5.75,3.35.19.1.36.22.54.32.55.28,1.07.62,1.61.92a1.5,1.5,0,0,0,1.52,0c.59-.32,1.14-.69,1.72-1,1.94-1.08,3.83-2.25,5.76-3.33a23.85,23.85,0,0,1,2.43-1.32.63.63,0,0,1,.53.34c-.11.24-.35.33-.56.45-2.81,1.63-5.6,3.29-8.43,4.88C51.75,56.16,51.24,56.47,50.72,56.77Z" fill="#2daee9"/><path d="M59.81,36.94a10.59,10.59,0,0,1,1,.63c0,.3-.2.35-.4.44a2.45,2.45,0,0,1-1.21-.56c-1.22-.71-2.41-1.47-3.66-2.13a.89.89,0,0,1-.25-.14c-1.16-.76-2.39-1.44-3.59-2.14l-.86-.53a1.34,1.34,0,0,0-1.55,0c-1.15.73-2.32,1.41-3.5,2.1a7.74,7.74,0,0,0-1,.61,1.52,1.52,0,0,1-.41.24,1.59,1.59,0,0,0-.29.15l-.12.08c-1.22.7-2.43,1.43-3.65,2.12-.16.09-.3.21-.5.17s-.41-.19-.38-.47c0,0,0,0,0-.07a1.09,1.09,0,0,0,.39-.19c3-1.8,6.1-3.59,9.13-5.4a2.09,2.09,0,0,1,2.17-.08,3.69,3.69,0,0,1,1,.48c2.39,1.42,4.79,2.81,7.18,4.22A1.56,1.56,0,0,1,59.81,36.94Z" fill="#71f1ed"/><path d="M39.41,37.55c.08.19.3.24.4.41s0,.14-.05.18A2.21,2.21,0,0,0,39.17,40c0,1.3.06,2.61,0,3.92-.08.2,0,.42-.13.61a.43.43,0,0,1-.48.26c-.2,0-.13-.24-.12-.37,0-1.22,0-2.44,0-3.67,0-.57,0-1.14,0-1.7A1.77,1.77,0,0,1,39.41,37.55Z" fill="#45e0ed"/><path d="M38.43,40.76v3.91c.47,0,.47,0,.5-.41,0-.12,0-.26.08-.36.19.16.15.38.16.59,0,1.31,0,2.63,0,3.94,0,.58.13,1.15.14,1.72-.06.27-.31.22-.49.29a1.37,1.37,0,0,1-.39-.86,1.93,1.93,0,0,1,0-.24c0-2.72-.1-5.44-.06-8.15A.79.79,0,0,1,38.43,40.76Z" fill="#2fc7ec"/><path d="M61.27,50.54c-.17-.11-.37-.14-.5-.31.45-1.72.17-3.48.25-5.21a.87.87,0,0,1,.1-.42.78.78,0,0,0,.4-.81,7.06,7.06,0,0,1,0-.92c0-.16,0-.37.22-.42,0,1,0,2.11,0,3.16v4A1.73,1.73,0,0,1,61.27,50.54Z" fill="#35cdef"/><path d="M59.81,36.94l-4.11-2.4L51.42,32a3.46,3.46,0,0,1-.31-.22.93.93,0,0,1,.64.15,3.17,3.17,0,0,0,1.06.31,5,5,0,0,1,.54.21c.73.35,1.43.74,2.19,1a7.2,7.2,0,0,1,2.33,1.59,6.5,6.5,0,0,0,1.42,1.08A.92.92,0,0,1,59.81,36.94Z" fill="#0f6a8f"/><path d="M61.74,42.45c-.14.15-.07.34-.08.51,0,.37,0,.74,0,1.11s.1.54-.5.52a.89.89,0,0,1-.14-.65c0-1.13,0-2.26,0-3.39A3.6,3.6,0,0,0,60.39,38c.07-.19.32-.23.38-.43h.1a2.24,2.24,0,0,1,.9,1.75c0,.86,0,1.73,0,2.6C61.75,42.09,61.74,42.27,61.74,42.45Z" fill="#4de2eb"/><path d="M60.39,38a1.55,1.55,0,0,1,.76,1.52v4.53c0,.18,0,.36,0,.54,0,1.42,0,2.84,0,4.27a2.29,2.29,0,0,1-.4,1.37c-.62.45-1.32.76-2,1.15-1.31.77-2.61,1.52-3.92,2.27-.76.44-1.5.91-2.29,1.3a1,1,0,0,0-1.26,0,2.83,2.83,0,0,1-2.94,0,.71.71,0,0,0-.78,0l-.49-.29c-.07-.45.29-.42.55-.49a2.8,2.8,0,0,1,.76.12l.13.07a2.08,2.08,0,0,0,2.61.09.52.52,0,0,1,.13-.06,2.71,2.71,0,0,0,.41-.09,12.1,12.1,0,0,0,4.7-2A9.51,9.51,0,0,0,58.76,50a2.58,2.58,0,0,0,1-1.61A11.18,11.18,0,0,0,60.66,44a10.79,10.79,0,0,0-.81-3.82c-.05-.09-.08-.19-.12-.28-.1-.38-.31-.72-.4-1.1a4.21,4.21,0,0,0-.16-.86c-.06-.2-.13-.41,0-.59Z" fill="#0f638d"/><path d="M47.72,54.33c-.26,0-.53.05-.6.38l-7.24-4.18c-.2-.11-.38-.25-.57-.38A2.06,2.06,0,0,1,39,49c0-1.47,0-3,0-4.42,0-.21,0-.42,0-.63,0-1.43,0-2.85,0-4.28a1.77,1.77,0,0,1,.8-1.66c.73-.35,1.41-.8,2.11-1.2s1.24-.72,1.86-1.07a.83.83,0,0,1,.22-.08c.06.2-.1.29-.22.38a11.54,11.54,0,0,0-2.24,2.23,4.46,4.46,0,0,0-1.2,1.88,9.89,9.89,0,0,0,0,8.11,3.58,3.58,0,0,0,1.1,1.88,10.77,10.77,0,0,0,4.3,3.41,8.36,8.36,0,0,0,1.61.58C47.5,54.12,47.7,54.11,47.72,54.33Z" fill="#0e6790"/><path d="M47.61,55c0-.27.17-.31.34-.3a1.12,1.12,0,0,1,.55.16,2.44,2.44,0,0,0,2.61,0A2.34,2.34,0,0,1,52,54.6a.5.5,0,0,1,.62.35A18.78,18.78,0,0,1,50.76,56a1.41,1.41,0,0,1-1.43,0C48.75,55.68,48.19,55.33,47.61,55Z" fill="#0d5284"/><path d="M44.66,35.22a10.11,10.11,0,0,1,1.59-1c1-.59,1.91-1.16,2.87-1.73l.25-.15a1.29,1.29,0,0,1,1.42,0L55.21,35c.06,0,.09.09.14.13-.24.16-.43,0-.63-.1A13.68,13.68,0,0,0,51.3,34a2.84,2.84,0,0,0-2.6.08,8.72,8.72,0,0,0-3.33,1C45.15,35.18,44.94,35.38,44.66,35.22Z" fill="#0f799c"/><path d="M51.31,33.87a4.6,4.6,0,0,1,1.32.25,14.38,14.38,0,0,1,2.44.92,1.29,1.29,0,0,0,.28.08l.16.1a10.53,10.53,0,0,1,2.67,2.06c.19.23.47.42.38.78a.31.31,0,0,1-.2.07,2.17,2.17,0,0,1-.94-.6,1.91,1.91,0,0,0-.58-.65,10.86,10.86,0,0,0-4.24-2.25,1.75,1.75,0,0,0-.24,0C52,34.42,51.52,34.31,51.31,33.87Z" fill="#1bc8da"/><path d="M44.66,35.22a2,2,0,0,0,.62-.26A12.11,12.11,0,0,1,47.82,34a3.2,3.2,0,0,1,.87-.07c-.13.42-.54.48-.86.64a5.71,5.71,0,0,0-1.8.56,9.79,9.79,0,0,0-3.44,2.46c-.1.17-.28.23-.44.33s-.39.37-.69.2a10.5,10.5,0,0,1,2.32-2.29.51.51,0,0,0,.22-.24h0c.1-.07.21-.12.3-.19Z" fill="#17c5da"/><path d="M58.54,38.05a1.64,1.64,0,0,0-.47-.71,12.37,12.37,0,0,0-2.31-1.9c-.1-.06-.2-.1-.25-.22a.59.59,0,0,1,.14,0c1.19.71,2.4,1.38,3.57,2.13a1.79,1.79,0,0,0,.11.69,1.27,1.27,0,0,1,.08.79A1.41,1.41,0,0,1,58.54,38.05Z" fill="#137c9f"/><path d="M44.29,35.42a.32.32,0,0,1-.3.19A.38.38,0,0,1,44.29,35.42Z" fill="#0e6790"/><path d="M59.82,48.51a1.69,1.69,0,0,1-.59,1.2l-.38.35a4.79,4.79,0,0,1-1.08.76c-.84.49-1.7,1-2.52,1.47a1.3,1.3,0,0,1-.59.23c-.28,0-.64.1-.74-.33a1.79,1.79,0,0,1,.76-.6c1.15-.64,2.26-1.33,3.42-2a1.73,1.73,0,0,0,1-1.66c0-2.36,0-4.71,0-7.07,0-.25-.07-.53.17-.72.28.14.21.41.21.64,0,1.34,0,2.68,0,4,0,.32.08.5.4.56A9.55,9.55,0,0,1,59.82,48.51Z" fill="#3fd0ef"/><path d="M54,52.2a.37.37,0,0,0,.36.19h.44c0,.22-.19.29-.34.37-.65.35-1.27.75-1.93,1.1a2.54,2.54,0,0,0-.86.59c-.1,0-.22,0-.32.07h-.08a2.34,2.34,0,0,1-2.73-.09v0c-.28-.08-.43-.37-.7-.47-.76-.38-1.46-.85-2.2-1.27-.11-.06-.23-.12-.25-.27a3.11,3.11,0,0,1,.52-.44,6.6,6.6,0,0,1,1.69.87,7.67,7.67,0,0,1,.79.45,6.19,6.19,0,0,0,1.32.7,2.48,2.48,0,0,0,2-.62c.63-.32,1.22-.7,1.84-1C53.62,52.25,53.76,52.11,54,52.2Z" fill="#37baec"/><path d="M59.8,45.37l-.48.25v-.46c0-1.48,0-3,0-4.45a.79.79,0,0,0-.07-.52,6.37,6.37,0,0,0-.76-1.2c-.19-.16-.46-.25-.56-.51.08-.2.27-.3.42-.42h.2l.87.8a3,3,0,0,1,.41,1,8.19,8.19,0,0,1,.12,2.21c0,.72,0,1.45,0,2.17C59.9,44.63,60.06,45,59.8,45.37Z" fill="#6deef1"/><path d="M59.8,45.37V44.3a.11.11,0,0,1,.15,0,8.1,8.1,0,0,1,0,2.4,11.81,11.81,0,0,0-.13-5.59,4.11,4.11,0,0,1,0-1,5.92,5.92,0,0,1,.67,2A9.86,9.86,0,0,1,60,48l-.21.49C59.81,47.46,59.81,46.41,59.8,45.37Z" fill="#1cbcd8"/><path d="M51.61,54.43a.5.5,0,0,1,.31-.39l.48-.27a9.31,9.31,0,0,0,2.56-1,14,14,0,0,0,2.8-2.1,8.48,8.48,0,0,1,1.09-.65,6,6,0,0,1-1.55,1.73,11.72,11.72,0,0,1-4.09,2.29c-.49.16-1,.25-1.51.37C51.66,54.48,51.63,54.48,51.61,54.43Z" fill="#1ab4d1"/><path d="M47.89,53.86a2.14,2.14,0,0,1,.6.56c-.27.06-.5-.12-.77-.09a4.12,4.12,0,0,0-.78-.23,11.61,11.61,0,0,1-4.22-2.44,7.21,7.21,0,0,1-1.37-1.5c.44-.16.66.21,1,.39a9.9,9.9,0,0,0,4.67,3C47.3,53.65,47.55,53.89,47.89,53.86Z" fill="#1ab5ce"/><path d="M48.49,54.45a1.14,1.14,0,0,1,.6.15,2,2,0,0,0,2,0,.58.58,0,0,1,.14,0,1.07,1.07,0,0,1-.86.46,2.53,2.53,0,0,1-1.46-.17A1,1,0,0,1,48.49,54.45Z" fill="#0e6790"/><path d="M59.91,40.09v1.09a10.92,10.92,0,0,1,.14,2.68.5.5,0,0,1-.16.43h-.08c0-1.47,0-2.94,0-4.42A.29.29,0,0,1,59.91,40.09Z" fill="#3fd0ef"/><path d="M51.61,54.43l.09,0c-.11.13-.26.08-.4.08C51.38,54.43,51.5,54.45,51.61,54.43Z" fill="#0e6790"/><path d="M42.25,50.64a2.18,2.18,0,0,0-.9-.48,4.49,4.49,0,0,0-.41-.46,2.19,2.19,0,0,1-.66-1.39,3.19,3.19,0,0,1-.14-1.19,23.37,23.37,0,0,1,.06-2.51c.07-.17.18-.18.26,0s.35.37.48.58A4.09,4.09,0,0,1,41,46.37c0,.61,0,1.23.08,1.84A1.72,1.72,0,0,0,42,49.6c1.14.64,2.27,1.32,3.4,2,.18.11.39.18.43.43s-.26.33-.48.38-.35,0-.49-.12C44,51.72,43.09,51.24,42.25,50.64Z" fill="#3ed2f1"/><path d="M40.88,45.17a1,1,0,0,1-.58-.69c-.2-.19-.16-.44-.16-.68,0-.9,0-1.8,0-2.7A2.6,2.6,0,0,1,40.3,40a2.6,2.6,0,0,1,.88-1.55,4.12,4.12,0,0,0,.28-.31c.28,0,.42-.27.68-.29a1.62,1.62,0,0,1,.1.72,1.42,1.42,0,0,1-.29.26A2.18,2.18,0,0,0,41,40.75q0,1.89,0,3.78C41,44.75,41.06,45,40.88,45.17Z" fill="#68ecf1"/><path d="M40.3,40l0,1.09a11.92,11.92,0,0,0,0,6v1.2A6.87,6.87,0,0,1,39.52,46c-.09-.49-.13-1-.19-1.48a7.76,7.76,0,0,1,.1-1.74,8.9,8.9,0,0,1,.69-2.52A.51.51,0,0,1,40.3,40Z" fill="#1cb5d4"/><path d="M42.21,38.44c-.23-.18-.17-.38-.07-.59l.4-.28A2.26,2.26,0,0,1,43.4,37c1.25-.72,2.46-1.5,3.73-2.18a1.79,1.79,0,0,1,.67-.27,4.59,4.59,0,0,0,.89-.56,3.25,3.25,0,0,1,1.13-.4,2.51,2.51,0,0,1,1.49.32,5.71,5.71,0,0,0,1.09.65,7.05,7.05,0,0,1,1.69.85c1,.58,2,1.15,2.93,1.74a.84.84,0,0,1,.44.37l.88.58a.45.45,0,0,1-.39.4c-.36.08-.58-.18-.84-.33l-6.18-3.59a1.53,1.53,0,0,0-1.57-.06c-.57.29-1.11.6-1.66.93-1.25.74-2.52,1.46-3.77,2.22l-1.13.65A.88.88,0,0,1,42.21,38.44Z" fill="#a7f7f4"/><path d="M57.46,37.48l-5.06-3a1.79,1.79,0,0,1,.91.2,11.57,11.57,0,0,1,3.45,1.92,9.08,9.08,0,0,1,.71.68A.09.09,0,0,1,57.46,37.48Z" fill="#1393af"/><path d="M47.8,34.51c-1.77,1-3.48,2.09-5.26,3.06-.1-.1,0-.15.05-.2a21.58,21.58,0,0,1,2-1.59,13,13,0,0,1,3-1.31A.2.2,0,0,1,47.8,34.51Z" fill="#118daa"/><path d="M57.17,38.06a7.16,7.16,0,0,0,.78.4c.2.15.42.28.61.45a2,2,0,0,1,.68,1.28c0,.69,0,1.37,0,2.05,0,1.93,0,3.85,0,5.78a1.82,1.82,0,0,1-1,1.72c-1.42.8-2.82,1.64-4.24,2.46l-1.77,1c-.15.09-.32.16-.48.24-.4-.32-1-.24-1.37-.57,0-.12.07-.17.16-.2A41.39,41.39,0,0,0,55,50.19c.52-.29,1-.6,1.55-.91A2.68,2.68,0,0,0,58,46.72c0-.32,0-.65,0-1,0-1.17,0-2.33,0-3.49a4.79,4.79,0,0,0-.54-2.47,4,4,0,0,0-.26-1A.75.75,0,0,1,57.17,38.06Z" fill="#1686ab"/><path d="M57.76,50.71a5.33,5.33,0,0,1-1.38,1.34,10.17,10.17,0,0,1-3.21,1.64c-.24.07-.49.28-.77.08.79-.44,1.59-.87,2.35-1.37a11,11,0,0,0,1.37-.78Z" fill="#11769f"/><path d="M42.21,38.44l1.69-.92c0,.47-.38.75-.63,1.08a2,2,0,0,0-.55,1.15,4.33,4.33,0,0,0-.53,2.52c0,1.57,0,3.14,0,4.71a2.23,2.23,0,0,0,1,2A26.35,26.35,0,0,0,46,50.71c1.06.61,2.09,1.26,3.18,1.81.1,0,.2.11.21.24-.3.33-.75.4-1.1.61L46.4,52.3,45.85,52l-2.13-1.27-1.93-1.12A1.68,1.68,0,0,1,41,48.23c-.11-1,0-2-.07-3.06,0-1.46,0-2.92,0-4.38a2.31,2.31,0,0,1,1.19-2.22C42.13,38.53,42.19,38.51,42.21,38.44Z" fill="#178aae"/><path d="M48.29,53.37c.24-.41.71-.42,1.09-.6a1,1,0,0,1,.95.1c.35,0,.67.2,1,.24a.35.35,0,0,1,.35.34L51,53.9a1.74,1.74,0,0,1-1.8.06A5,5,0,0,1,48.29,53.37Z" fill="#0f6f9c"/><path d="M42.25,50.64a9.33,9.33,0,0,1,1.61.88c.5.28,1,.62,1.51.87.82.52,1.65,1,2.52,1.47-.07.1-.16.07-.26,0a11,11,0,0,1-4.44-2.3A5.76,5.76,0,0,1,42.25,50.64Z" fill="#1478a3"/><path d="M59.89,44.29c0-1,0-2.07,0-3.11a4.12,4.12,0,0,1,.38,1.34,10.7,10.7,0,0,1,.08,2.71,5,5,0,0,1-.46,1.87Z" fill="#0f7fa4"/><path d="M40.28,47.11c-.24-.12-.22-.37-.28-.58a10.07,10.07,0,0,1,.17-5.29.72.72,0,0,1,.11-.15c0,1.13,0,2.26,0,3.39C40.3,45.36,40.29,46.23,40.28,47.11Z" fill="#107ba1"/><path d="M42.64,39.63a1.24,1.24,0,0,1,.47-1c.3-.34.52-.73.79-1.09.62-.45,1.31-.78,2-1.17,1.1-.65,2.2-1.31,3.33-1.93a1.74,1.74,0,0,1,1.84,0l6,3.49.15.12a4.11,4.11,0,0,0,.34,1.08c.1.17,0,.38.05.57-.22,0-.33-.15-.49-.23a4.43,4.43,0,0,0-.82-.6c-1.71-1-3.41-2-5.13-3a1.92,1.92,0,0,0-2.07,0c-2.1,1.25-4.25,2.39-6.26,3.77A.2.2,0,0,1,42.64,39.63Z" fill="#169ab7"/><path d="M50.33,52.87a6,6,0,0,1-.95-.1c-1.6-.85-3.15-1.79-4.72-2.69-.48-.28-1-.54-1.41-.86a2.5,2.5,0,0,1-1.2-2.1c.2-.16.4-.25.62,0a3,3,0,0,0,1.67,2c1.63.9,3.23,1.85,4.83,2.81a1.64,1.64,0,0,0,1.87,0c1.75-1.06,3.52-2.07,5.28-3.12a2,2,0,0,0,1.07-1.48,1.31,1.31,0,0,1,.12-.27,1.11,1.11,0,0,0,.25-.6c.05-.22,0-.51.38-.52,0,.44,0,.88,0,1.32a2.55,2.55,0,0,1-1.2,2c-.79.52-1.61,1-2.42,1.46-1,.59-2,1.16-3,1.76A7.23,7.23,0,0,1,50.33,52.87Z" fill="#3be4f1"/><path d="M58.14,45.85a.77.77,0,0,0-.28.67.5.5,0,0,1-.29.5c-.2-.18-.14-.42-.14-.64,0-1.25,0-2.5,0-3.76A4.65,4.65,0,0,0,56.84,40c0-.27.14-.41.33-.54.18,0,.24.22.39.29a4,4,0,0,1,.6,2.35C58.12,43.33,58.14,44.59,58.14,45.85Z" fill="#67eef1"/><path d="M42.62,47.12c-.19-.16-.38,0-.57,0,0-2,0-3.92,0-5.88A2.7,2.7,0,0,1,42.43,40l.21-.38h.1a.53.53,0,0,1,.42.53,4.67,4.67,0,0,0-.38,2.33c0,1,0,1.94,0,2.92,0,.38,0,.76,0,1.14C42.78,46.75,42.8,47,42.62,47.12Z" fill="#6beff0"/><path d="M43.13,40a1,1,0,0,1-.39-.39,2.23,2.23,0,0,1,.78-.65l5.4-3.19a2.12,2.12,0,0,1,2.34,0c1.72,1,3.46,2.05,5.19,3.07a3.57,3.57,0,0,1,.72.56.51.51,0,0,1-.3.4.75.75,0,0,1-.58-.2c-1.73-1-3.46-2.06-5.2-3.08a1.81,1.81,0,0,0-2,0c-1.88,1.13-3.8,2.18-5.64,3.37C43.34,40,43.25,40.05,43.13,40Z" fill="#9cf6f4"/><path d="M43.13,40a12.65,12.65,0,0,1,2-1.29c1.26-.76,2.55-1.48,3.81-2.25a2,2,0,0,1,2.28,0c1.86,1.14,3.76,2.24,5.65,3.35a3.54,3.54,0,0,1,.64,1.34,2.88,2.88,0,0,1,0,.58c0,1.76,0,3.52,0,5.28a.28.28,0,0,1-.1.21c-.27-.45-.09-.92-.1-1.25-.16.77-.93,1.34-1.26,2.2a1.5,1.5,0,0,1-1.43,1.13c-.17-.22,0-.33.16-.46a2.13,2.13,0,0,0,.58-.79,8.93,8.93,0,0,0,.9-1.55,5.31,5.31,0,0,0,0-4.65,4,4,0,0,1-.22-.47c-.14-.37-.39-.7-.53-1.07A3.69,3.69,0,0,0,54.45,39a7.45,7.45,0,0,0-2.65-1.41,2.31,2.31,0,0,0-1.25-.09h-1a6.19,6.19,0,0,0-5,2.8.79.79,0,0,0-.1.27.69.69,0,0,1,0,.13c-.22.3-.29.67-.5,1a5.61,5.61,0,0,0,0,5c.29.46.47,1,.79,1.43a4.54,4.54,0,0,0,.63.76c.11.1.28.19.17.39a1,1,0,0,1-1.18-.63,31.18,31.18,0,0,1-1.63-3.21c0-1.35,0-2.71,0-4.06A2.69,2.69,0,0,1,43.13,40Z" fill="#1fb8ce"/><path d="M42.64,45.37s.13.07.15.13c.37.82.86,1.59,1.24,2.42A1.86,1.86,0,0,0,44.9,49a1.1,1.1,0,0,0,.56.13c.34,0,.5.25.73.42a5.89,5.89,0,0,0,3.43,1.2h.86a6.14,6.14,0,0,0,3.24-1c.29-.19.52-.5.91-.5a1.85,1.85,0,0,0,1.48-1.43,1.18,1.18,0,0,1,.19-.39,4.55,4.55,0,0,0,1-1.56,2.76,2.76,0,0,1,.17-.25c.09.59,0,1.1,0,1.59a1.8,1.8,0,0,1-1,1.58c-1.75,1-3.52,2.06-5.27,3.12a1.87,1.87,0,0,1-2.13,0c-1.28-.79-2.59-1.52-3.89-2.28l-1.51-.89a2,2,0,0,1-1-1.63C42.63,46.54,42.64,46,42.64,45.37Z" fill="#21a5c2"/><path d="M50.54,50.91h-1a4,4,0,0,1-1.3-.49c-1-.52-1.95-1.14-2.93-1.71a2.94,2.94,0,0,1-.74-.62,5.82,5.82,0,0,1-.79-1.37,4,4,0,0,1-.25-1.57q0-1,0-2a3.76,3.76,0,0,1,.25-1.56c.18-.29.21-.66.48-.9a.14.14,0,0,1,.07.17c-.16.31,0,.43.28.51a6.59,6.59,0,0,1-.16,1,35.13,35.13,0,0,0,0,3.7,2.45,2.45,0,0,0,1.18,1.87,31.42,31.42,0,0,0,3.35,2,2.2,2.2,0,0,0,2.11,0,33.7,33.7,0,0,0,3.52-2.1,2.3,2.3,0,0,0,1-2,5.25,5.25,0,0,1,0-1.12,1.42,1.42,0,0,0,0-.84,10.73,10.73,0,0,1,0-1.88c.35-.07.31.21.35.4a15.74,15.74,0,0,1,.1,2.57c0,.15,0,.31,0,.47a12.78,12.78,0,0,0,0-3.44c0-.2-.1-.42.09-.6.12.11.1.29.18.41a3.25,3.25,0,0,1,.25,1.57,12.46,12.46,0,0,1-.16,3c0,.11,0,.23-.1.32a4.7,4.7,0,0,1-.87,1.48,1.44,1.44,0,0,1-.47.48c-1.14.62-2.2,1.38-3.36,1.95A3.63,3.63,0,0,1,50.54,50.91Z" fill="#cefafa"/><path d="M56.21,41.34a5.37,5.37,0,0,0,.11,1.06,12.4,12.4,0,0,1,0,2.79c0,.18,0,.36,0,.54s0,.17-.12.17-.14-.08-.15-.17a1.83,1.83,0,0,1,0-.33c0-.7,0-1.4,0-2.09,0-.41-.12-.8-.12-1.21,0-.09-.07-.13-.15-.15-.28-.15-.26-.47-.42-.69a4.4,4.4,0,0,0-.57-.72,7,7,0,0,0-1.25-.83c-.79-.45-1.57-.92-2.38-1.33a2.12,2.12,0,0,0-2.1,0,38,38,0,0,0-3.65,2.15c-.2.13-.31.36-.49.51a1.15,1.15,0,0,0-.23.21l-.06,0c-.15,0-.26.28-.42.14s0-.32,0-.47a.55.55,0,0,0,.06-.28v-.1a2.37,2.37,0,0,1,1-1c1-.49,1.83-1.1,2.76-1.63a4,4,0,0,1,1.48-.57h1.13A6.09,6.09,0,0,1,53,38.46c.55.31,1.07.65,1.64.93a2.44,2.44,0,0,1,1,.92A7.59,7.59,0,0,1,56.21,41.34Z" fill="#eefbfa"/><path d="M49.49,37.37A48.25,48.25,0,0,0,45,39.83c-.31.16-.5.49-.76.73a2,2,0,0,1,.55-.94,7.24,7.24,0,0,1,4-2.24A3.08,3.08,0,0,1,49.49,37.37Z" fill="#28edf0"/><path d="M55.7,40.31a5.79,5.79,0,0,0-1.57-1.06c-.5-.26-1-.58-1.46-.87a11.15,11.15,0,0,0-2.05-1,2,2,0,0,1,1.36.15A7.08,7.08,0,0,1,55.57,40,.42.42,0,0,1,55.7,40.31Z" fill="#2cecef"/><path d="M50.54,50.91a13.48,13.48,0,0,0,2.74-1.43,23,23,0,0,0,2.23-1.37.93.93,0,0,1-.33.56,3.92,3.92,0,0,0-.55.6,8.36,8.36,0,0,1-1.79,1.14A6.78,6.78,0,0,1,50.54,50.91Z" fill="#29ebf0"/><path d="M44.59,48.1c.62.38,1.25.75,1.86,1.15.82.54,1.72,1,2.57,1.46a5,5,0,0,0,.54.21,5.15,5.15,0,0,1-2-.42,7.68,7.68,0,0,1-2.08-1.33c-.21-.29-.53-.48-.73-.78C44.67,48.3,44.58,48.22,44.59,48.1Z" fill="#2deaf0"/><path d="M43.8,41.56a30.78,30.78,0,0,0,0,5.17,3.69,3.69,0,0,1-.56-1.63,5.46,5.46,0,0,1,.27-3A1.39,1.39,0,0,1,43.8,41.56Z" fill="#2aefef"/><path d="M56.38,46.63a24.48,24.48,0,0,0,.1-3.09,10.74,10.74,0,0,0-.09-1.79,2.08,2.08,0,0,1,.44,1,5.91,5.91,0,0,1-.33,3.73C56.48,46.55,56.42,46.59,56.38,46.63Z" fill="#28ecef"/><path d="M44.79,41c.21-.12.23-.43.5-.48.32.16.17.41.1.61-.19.47-.3,1-.5,1.43a4.56,4.56,0,0,0-.27,2,1.12,1.12,0,0,0,.1.48c.33.65.56,1.34.88,2a2,2,0,0,0,.67.75c.51.33,1,.58,1.57.89a1.92,1.92,0,0,0,1.17.22,6.32,6.32,0,0,1,1.79,0,1.87,1.87,0,0,0,1.76-.72l.12-.1a1.78,1.78,0,0,1,.3-.17c1.2-.29,1.66-1.31,2.17-2.26a4,4,0,0,0-.07-3.9,1.53,1.53,0,0,1-.25-1.28A2.71,2.71,0,0,1,55.74,42a8.39,8.39,0,0,1,.07,1.94,1.55,1.55,0,0,1,0,.8c0,.39,0,.78,0,1.17a2.37,2.37,0,0,1-1.07,2,31.07,31.07,0,0,1-3.63,2.17A2.24,2.24,0,0,1,48.88,50a35.22,35.22,0,0,1-3.29-2,3.22,3.22,0,0,1-1-1.13,1.39,1.39,0,0,1-.17-.74q-.09-1.95,0-3.9a3,3,0,0,1,.21-1h0A1.87,1.87,0,0,1,44.79,41Z" fill="#22e2ec"/><path d="M44.38,42.25v3.9c-.09-.1-.07-.21-.07-.33,0-1.07,0-2.14,0-3.2C44.3,42.49,44.28,42.35,44.38,42.25Z" fill="#2cf1f4"/><path d="M55.81,44.69v-.8A1.1,1.1,0,0,1,55.81,44.69Z" fill="#2cf1f4"/><path d="M54.83,40.48a2.88,2.88,0,0,0,.37,1.24c.21.33.25.73.46,1.06a.72.72,0,0,1,.05.33,5.93,5.93,0,0,0,0,.73,3.79,3.79,0,0,1-.63,2.24,14.29,14.29,0,0,1-.86,1.28.9.9,0,0,1-.44.38l-1.11.44c0-.28.23-.38.4-.51a4.64,4.64,0,0,0,.68-6.39,4.59,4.59,0,0,0-6.15-1.05,4.5,4.5,0,0,0-1.31,6.58,4.28,4.28,0,0,0,3.53,1.95,4.48,4.48,0,0,0,2.39-.52.43.43,0,0,1,.46-.06,1.79,1.79,0,0,1-2,.83A6.51,6.51,0,0,0,49,49a2,2,0,0,1-1.54-.39,3.06,3.06,0,0,0-.64-.35,2.83,2.83,0,0,1-1.62-1.7,9.14,9.14,0,0,0-.63-1.48.69.69,0,0,1-.1-.42v-.34a3.8,3.8,0,0,1,.29-1.85c.2-.47.29-1,.52-1.46a.44.44,0,0,0,0-.5,6,6,0,0,1,1.49-1c.65-.39,1.32-.77,2-1.14a2.34,2.34,0,0,1,2.33-.13c1.22.61,2.39,1.31,3.55,2A.39.39,0,0,1,54.83,40.48Z" fill="#2cf1f4"/><path d="M44.79,41a.31.31,0,0,1-.2.29A.27.27,0,0,1,44.79,41Z" fill="#cefafa"/><path d="M52.67,48.18a.37.37,0,0,0-.14,0,4.65,4.65,0,0,1-3,.66,3.39,3.39,0,0,1-1-.22,4.8,4.8,0,0,1-3.21-4.84,4.59,4.59,0,0,1,2.13-3.64,4.76,4.76,0,0,1,7.38,3.2A4.51,4.51,0,0,1,53,47.89a1.26,1.26,0,0,0-.32.29Z" fill="#edfcfb"/><path d="M50,48.31A4.17,4.17,0,0,1,50.07,40a4.22,4.22,0,0,1,4.19,4.23A4.17,4.17,0,0,1,50,48.31Z" fill="#51f6f6"/><path d="M53.37,43.86a3.7,3.7,0,0,1-.58,2.27s0,0,0,0a4.88,4.88,0,0,1-2.21,1.25,5.71,5.71,0,0,1-1.24,0,1.2,1.2,0,0,1-.63-.25c-.34-.22-.67-.45-1-.7a2,2,0,0,1-.78-1.4c0-.35-.11-.7-.17-1.05a3.14,3.14,0,0,1,.14-1.1c.12-.77.73-1.14,1.3-1.54A3.92,3.92,0,0,1,49,40.9a2.87,2.87,0,0,1,3.15.55s.07.08.11.1A2.38,2.38,0,0,1,53.37,43.86Z" fill="#7cf9f9"/><path d="M50.06,41.36a2.87,2.87,0,0,1,2.53,1.38,1.88,1.88,0,0,1,.23,1.08,2.55,2.55,0,0,1-.4,1.78,3.52,3.52,0,0,1-2,1.23,2.46,2.46,0,0,1-2.14-.64,2.07,2.07,0,0,1-.89-1.94.94.94,0,0,0,0-.29A1.89,1.89,0,0,1,48.27,42,2.46,2.46,0,0,1,50.06,41.36Z" fill="#9ff9fa"/><path d="M47.9,44.09a1.83,1.83,0,0,1,.53-1.31,2.08,2.08,0,0,1,3-.31,2.45,2.45,0,0,1,.78,1.43,1.76,1.76,0,0,1-.57,1.62,2.94,2.94,0,0,1-1.24.64A2.05,2.05,0,0,1,48,44.77,1.51,1.51,0,0,1,47.9,44.09Z" fill="#cefbfa"/><path d="M50.16,42.83a1.24,1.24,0,0,1,1.25,1.35,1.41,1.41,0,0,1-1.33,1.28,1.48,1.48,0,0,1-1.38-1.32A1.38,1.38,0,0,1,50.16,42.83Z" fill="#fafefb"/></svg>