<svg xmlns="http://www.w3.org/2000/svg" viewBox="0 0 100 100"><path d="M49.27,100.4q-24.39,0-48.78,0c-.38,0-.49-.06-.49-.47Q0,50.42,0,.9C0,.47.11.4.51.4q49.49,0,99,0c.41,0,.51.07.51.5q0,49.52,0,99c0,.41-.11.47-.49.47q-24.33,0-48.68,0a1.1,1.1,0,0,1-.2-.84c0-1.66,0-3.33,0-5V59.8c0-.89,0-.9-.85-.61a13.16,13.16,0,0,0-1.27.46,1.49,1.49,0,0,1,1,1.6V99.56A1.11,1.11,0,0,1,49.27,100.4Z" fill="#eee2d6"/><path d="M49.27,100.4a25.42,25.42,0,0,0,0-2.76q0-18.14,0-36.27c0-1.2,0-1.24-1.52-1.71l2.87-1c.16-.06.22,0,.21.16s0,.49,0,.73q0,20.22,0,40.44c0,.12,0,.24,0,.37Z" fill="#2c2d2c"/><path d="M35.87,68.91H30.75c.12-.21.29-.15.43-.18a1.24,1.24,0,0,0,1.14-1.28c0-.2,0-.41,0-.62V55.42s-.1,0-.11,0c-1.6,4.11-3.44,8.11-5.08,12.19l-.39,1c-.07.15-.08.34-.32.34s-.27-.18-.34-.33C25.4,67,24.67,65.26,24,63.57L20.7,55.81c-.13.06-.08.15-.08.22,0,3.44,0,6.87,0,10.31,0,.31,0,.63,0,.94A1.49,1.49,0,0,0,22,68.74a.26.26,0,0,1,.25.14h-3.7s0-.11.06-.11a1.73,1.73,0,0,0,1.49-1.89c0-1.35,0-2.71,0-4.06,0-2.26,0-4.51,0-6.77,0-1.16-.25-1.45-1.38-1.7-.1,0-.22,0-.28-.22a14.11,14.11,0,0,0,2.16,0c1.23-.18,1.75.34,2.2,1.45,1.4,3.53,2.93,7,4.44,10.55.48-1.16.95-2.27,1.42-3.38C29.84,60,31,57.28,32.16,54.54a.61.61,0,0,1,.7-.42c1,0,2,0,3,0-.13.26-.34.21-.51.25a1.15,1.15,0,0,0-1,1.14,5.17,5.17,0,0,0,0,.68c0,3.49,0,7,0,10.46,0,.24,0,.49,0,.73.06.86.32,1.15,1.17,1.34C35.63,68.76,35.8,68.69,35.87,68.91Z" fill="#2c2c2c"/><path d="M72.92,59.63l2.88-1c.25-.09.24.08.24.25v1.69c.22,0,.3-.2.43-.31a5.58,5.58,0,0,1,2.88-1.66,2.77,2.77,0,0,1,3.52,2.8c.08,2.39,0,4.79,0,7.18,0,.22-.05.33-.28.32h-.05c-1.48.13-1.47.13-1.47-1.35,0-1.73,0-3.46,0-5.2,0-2.17-1.18-3-3.26-2.37-.19.06-.36.13-.54.2A1.73,1.73,0,0,0,76,62.1c.13,2.11,0,4.23,0,6.35,0,.4-.11.53-.5.48s-1,.19-1.23-.11-.07-.8-.07-1.21c0-2,0-4.09,0-6.14C74.3,60.11,74.23,60,72.92,59.63Z" fill="#2d2d2d"/><path d="M38.79,59.83a1.18,1.18,0,0,1,.75,2,1.09,1.09,0,0,1-1.19.29,1,1,0,0,1-.69-1,1.73,1.73,0,0,1,.49-1.22,4.9,4.9,0,0,1,6.05-.81,2.84,2.84,0,0,1,1.22,2.46c0,1.86,0,3.72,0,5.57,0,1,.27,1.24,1.27,1a.42.42,0,0,1,.41,0A4.92,4.92,0,0,1,44,69.17c-.24,0-.21-.17-.21-.33V67.33l-.64.58a4,4,0,0,1-3.63,1.24,2.43,2.43,0,0,1-1.08-4.4,7.75,7.75,0,0,1,2.16-1,19.33,19.33,0,0,1,2.8-.77c.27,0,.38-.15.35-.43s0-.8-.05-1.2A2.52,2.52,0,0,0,40.3,59,4.05,4.05,0,0,0,38.79,59.83Z" fill="#2b2c2d"/><path d="M72.3,63.75A5.36,5.36,0,0,1,67,69.19a5.21,5.21,0,0,1-5.36-5.31,5.28,5.28,0,0,1,5.28-5.47A5.14,5.14,0,0,1,72.3,63.75Z" fill="#2c2d2d"/><path d="M59.88,61.48a12.81,12.81,0,0,1-.69-1.39,2.61,2.61,0,0,0-3.13-1.2,1.6,1.6,0,0,0-1.17,1.33A1.62,1.62,0,0,0,55.67,62a21.29,21.29,0,0,0,2.19.95,13,13,0,0,1,1.32.6,2.63,2.63,0,0,1,1.12,3.54,3.48,3.48,0,0,1-3,2.09,7.69,7.69,0,0,1-3.66-.62c-.14,0-.31-.09-.31-.3,0-.86,0-1.73,0-2.6,0,0,.06-.07.09-.11.19.11.15.31.21.46.52,1.33,1.2,2.49,2.73,2.81a2.24,2.24,0,0,0,2.75-2.1,1.49,1.49,0,0,0-.65-1.34,8.3,8.3,0,0,0-1.83-.87,12.32,12.32,0,0,1-1.71-.75,2.59,2.59,0,0,1-1.45-2.61,2.68,2.68,0,0,1,1.8-2.4,6.53,6.53,0,0,1,4.48.26c.16.06.19.18.19.33Z" fill="#2d2d2d"/><path d="M51.19,56.21A1.19,1.19,0,1,1,50,55,1.19,1.19,0,0,1,51.19,56.21Z" fill="#2a2c2c"/><path d="M60.2,46.67c0,1.72,0,3.43,0,5.15,0,.37-.11.47-.47.46-1,0-2.05,0-3.07,0-.38,0-.45-.13-.45-.47,0-3.13,0-6.25,0-9.37a1.07,1.07,0,0,0-.61-1.1c-1.77-1-3.51-2.09-5.26-3.17a.56.56,0,0,0-.69,0c-1.81,1.1-3.61,2.2-5.44,3.27a.79.79,0,0,0-.46.82c0,3.14,0,6.28,0,9.42,0,.46-.11.62-.6.6-1,0-1.94,0-2.91,0-.31,0-.46,0-.46-.42,0-3.48,0-7,0-10.46a.54.54,0,0,1,.31-.53Q45,38,49.79,35.17a.39.39,0,0,1,.5,0q4.78,2.84,9.58,5.66a.62.62,0,0,1,.35.61c0,1.74,0,3.47,0,5.21Z" fill="#ede1d5"/><path d="M50.74,40.08l3.87,2.31a.38.38,0,0,1,.18.39c0,3,0,6.11,0,9.16,0,.3-.11.34-.37.33-1.05,0-2.11,0-3.17,0-.42,0-.52-.11-.52-.51,0-3.59,0-7.18,0-10.77Z" fill="#ece1d5"/><path d="M49.29,40.08V51.92c0,.28-.09.36-.36.35q-1.66,0-3.33,0c-.26,0-.36-.07-.35-.35q0-4.55,0-9.1a.44.44,0,0,1,.19-.45Z" fill="#ede1d5"/><path d="M48.11,32.63a1.91,1.91,0,1,1,3.3,1.26c-.13.13-.23.2-.39.06s-.1,0-.13-.08a1.18,1.18,0,0,0-1.77,0c-.29.26-.46.13-.64-.15A1.92,1.92,0,0,1,48.11,32.63Z" fill="#ede1d3"/><path d="M43.72,65c0,.21,0,.42,0,.62,0,.43.2.93-.09,1.26a3.8,3.8,0,0,1-1.71,1.14,2,2,0,0,1-2.37-.66A2.06,2.06,0,0,1,40,64.92a6.85,6.85,0,0,1,3-1.5c.75-.23.76-.22.75.58v1Z" fill="#ede2d6"/><path d="M63.61,63.73a6.48,6.48,0,0,1,1.09-3.79,2.65,2.65,0,0,1,4.16-.28A5.45,5.45,0,0,1,70.25,63a6.69,6.69,0,0,1-.74,4.28,2.73,2.73,0,0,1-4.8.28,4,4,0,0,1-.56-1A6.84,6.84,0,0,1,63.61,63.73Z" fill="#ece0d3"/><path d="M45.32,47c0-2,0-4,0-6.08,0-.07,0-.13-.1-.08a2.23,2.23,0,1,1-.73-4.28h11a2.3,2.3,0,0,1,2.35,2.59,2.23,2.23,0,0,1-3,1.68c-.18-.08-.13.05-.13.12,0,1.81,0,3.62,0,5.43,0,.24-.12.37-.32.37s-.32-.13-.32-.38c-.08-2.06.16-4.2-.08-6.22a1.56,1.56,0,0,1,0-1.81.32.32,0,0,1,.45-.11.27.27,0,0,1,.09.43,1.13,1.13,0,0,0,1,1.73,1.6,1.6,0,0,0,1.27-2.74,2,2,0,0,0-1.46-.5H44.55A1.72,1.72,0,0,0,42.9,38.2a1.62,1.62,0,0,0,.45,1.8,1.51,1.51,0,0,0,2.19-.22,1,1,0,0,0,0-1.13.3.3,0,0,1,.27-.5c.7.31.7,1.48.24,2C45.81,44.39,46,48.72,46,53a.33.33,0,1,1-.64.08Z" fill="#010201" stroke="#000" stroke-miterlimit="10" stroke-width="0.5"/><path d="M56.12,33.05c0-.76,0-1.47,0-2.21,0-.24.12-.37.31-.37s.33.14.33.38c0,.77,0,1.54,0,2.31a.38.38,0,0,0,.22.38c1,.65,2.09,1.3,3.15,1.93.41.24.81.5,1.21.76a.3.3,0,0,1,.13.44.34.34,0,0,1-.47,0c-2.17-1.3-4.33-2.64-6.49-4L50.14,30.1a.24.24,0,0,0-.28,0c-3.61,2.22-7.22,4.45-10.85,6.64a.31.31,0,0,1-.5-.31C42,34,45.93,31.89,49.58,29.56a.68.68,0,0,1,.86,0C52.33,30.75,54.22,31.85,56.12,33.05Z" fill="#010101" stroke="#000" stroke-miterlimit="10" stroke-width="0.5"/><path d="M48.14,45.78v5.56a.32.32,0,1,1-.63,0q0-5.51,0-11c-.11-.55.44-.77.61-.29,0,1.91,0,3.82,0,5.73Z" fill="#030303" stroke="#000" stroke-miterlimit="10" stroke-width="0.5"/><path d="M49.68,44.93V40.17c0-.17,0-.3.21-.36s.43.09.43.36v9.44c0,.6-.69.6-.64,0V44.93Z" fill="#020302" stroke="#000" stroke-miterlimit="10" stroke-width="0.5"/><path d="M50,35.51c-1.7,0-3.39,0-5.09,0a.32.32,0,0,1-.32-.31c.14-.53,1-.22,1.38-.3h9c.21,0,.47.11.44.34a.3.3,0,0,1-.33.26c-1.69,0-3.38,0-5.07,0Z" fill="#030303" stroke="#000" stroke-miterlimit="10" stroke-width="0.5"/><path d="M52.49,44.07V48c0,.27-.13.41-.35.39a.29.29,0,0,1-.28-.32v-1.3c0-2.2,0-4.4,0-6.59a.32.32,0,0,1,.32-.36c.19,0,.31.13.31.35v3.92Z" fill="#020202" stroke="#000" stroke-miterlimit="10" stroke-width="0.5"/><path d="M50,38.15h2.5c.27,0,.41.16.35.4s-.21.2-.37.2h-5c-.26,0-.5-.25-.31-.47a.37.37,0,0,1,.31-.13H50Z" fill="#030403" stroke="#000" stroke-miterlimit="10" stroke-width="0.5"/></svg>