<svg xmlns="http://www.w3.org/2000/svg" viewBox="0 0 100 100"><path d="M50,100H.48c-.39,0-.48-.09-.48-.48Q0,50,0,.48C0,.09.09,0,.48,0h99c.39,0,.48.09.48.48q0,49.52,0,99c0,.39-.09.48-.48.48Z" fill="#bfbfbf"/><path d="M81.52,43.63v7.85c0,1,0,2.05,0,3.07a.9.9,0,0,1-.28.73L66.12,70.43c-2,2-4,3.94-5.91,5.93-.31.31-.42.23-.66,0-2.59-2.71-5.28-5.32-7.92-8-.26-.27-.36-.22-.59,0l-10,10c-.2.2-.3.21-.51,0Q33,71,25.54,63.54c-2.43-2.43-4.84-4.88-7.27-7.31-.25-.24-.21-.34,0-.55,2.83-2.84,5.64-5.7,8.48-8.53C30.5,43.39,34.28,39.66,38,35.9Q45.49,28.45,52.9,21c.49-.49.48-.49,1,0L67.37,34.36c.26.26.27.39,0,.64q-3.73,3.73-7.46,7.49l-8.18,8.15L42.42,60q-.73.74-1.44,1.5c-.19.22-.31.23-.53,0C38.71,59.7,37,58,35.19,56.2c-.27-.27,0-.37.09-.52L40,50.92l11.5-11.53C53,38,54.38,36.54,55.82,35.13c.22-.22.26-.32,0-.55-.77-.7-1.51-1.43-2.23-2.18-.22-.23-.33-.19-.53,0l-9.42,9.42-8.74,8.7c-1.75,1.74-3.48,3.49-5.23,5.22-.16.16-.18.22,0,.4q5.21,5.18,10.39,10.37c.69.69.69.69,1.39,0Q46.23,61.75,51,57c.27-.27.4-.28.67,0,2.66,2.69,5.34,5.36,8,8,.22.22.29.1.43,0l9.16-9.17,12-12a1.7,1.7,0,0,0,.15-.22Z" fill="#272d3b"/><path d="M59.85,59.62l-.23-.22c-1.76-1.77-3.52-3.55-5.29-5.31-.19-.2-.21-.29,0-.49q4.56-4.55,9.08-9.1c.19-.19.26-.12.4,0,1.78,1.79,3.57,3.59,5.37,5.37.27.27,0,.33-.09.46q-4.36,4.4-8.75,8.77Z" fill="#262c3a"/></svg>